<svg width="48" height="48" viewBox="0 0 48 48" fill="none" xmlns="http://www.w3.org/2000/svg">
<g clip-path="url(#clip0_236_13615)">
<path d="M32 22.5C32.5667 22.5 33.0417 22.3083 33.425 21.925C33.8083 21.5417 34 21.0667 34 20.5C34 19.9333 33.8083 19.4583 33.425 19.075C33.0417 18.6917 32.5667 18.5 32 18.5C31.4333 18.5 30.9583 18.6917 30.575 19.075C30.1917 19.4583 30 19.9333 30 20.5C30 21.0667 30.1917 21.5417 30.575 21.925C30.9583 22.3083 31.4333 22.5 32 22.5ZM16 18.5H26V14.5H16V18.5ZM9 42.5C7.86667 38.7 6.75 34.9083 5.65 31.125C4.55 27.3417 4 23.4667 4 19.5C4 16.4333 5.06667 13.8333 7.2 11.7C9.33333 9.56667 11.9333 8.5 15 8.5H25C25.9667 7.23333 27.1417 6.25 28.525 5.55C29.9083 4.85 31.4 4.5 33 4.5C33.8333 4.5 34.5417 4.79167 35.125 5.375C35.7083 5.95833 36 6.66667 36 7.5C36 7.7 35.975 7.9 35.925 8.1C35.875 8.3 35.8167 8.48333 35.75 8.65C35.6167 9.01667 35.4917 9.39167 35.375 9.775C35.2583 10.1583 35.1667 10.55 35.1 10.95L39.65 15.5H44V29.45L38.35 31.3L35 42.5H24V38.5H20V42.5H9ZM12 38.5H16V34.5H28V38.5H32L35.1 28.2L40 26.55V19.5H38L31 12.5C31 11.8333 31.0417 11.1917 31.125 10.575C31.2083 9.95833 31.3333 9.33333 31.5 8.7C30.5333 8.96667 29.6833 9.425 28.95 10.075C28.2167 10.725 27.6833 11.5333 27.35 12.5H15C13.0667 12.5 11.4167 13.1833 10.05 14.55C8.68333 15.9167 8 17.5667 8 19.5C8 22.7667 8.45 25.9583 9.35 29.075C10.25 32.1917 11.1333 35.3333 12 38.5Z" fill="#FECBB7"/>
</g>
<defs>
<clipPath id="clip0_236_13615">
<rect width="48" height="48" rx="8" fill="white"/>
</clipPath>
</defs>
</svg>
