<svg width="48" height="48" viewBox="0 0 48 48" fill="none" xmlns="http://www.w3.org/2000/svg">
<g clip-path="url(#clip0_236_13627)">
<path d="M24 45.5C21.6 43.2333 18.85 41.5 15.75 40.3C12.65 39.1 9.4 38.5 6 38.5V16.5C9.36667 16.5 12.6 17.1083 15.7 18.325C18.8 19.5417 21.5667 21.3 24 23.6C26.4333 21.3 29.2 19.5417 32.3 18.325C35.4 17.1083 38.6333 16.5 42 16.5V38.5C38.5667 38.5 35.3083 39.1 32.225 40.3C29.1417 41.5 26.4 43.2333 24 45.5ZM24 40.3C26.1 38.7333 28.3333 37.4833 30.7 36.55C33.0667 35.6167 35.5 35 38 34.7V20.9C35.5667 21.3333 33.175 22.2083 30.825 23.525C28.475 24.8417 26.2 26.6 24 28.8C21.8 26.6 19.525 24.8417 17.175 23.525C14.825 22.2083 12.4333 21.3333 10 20.9V34.7C12.5 35 14.9333 35.6167 17.3 36.55C19.6667 37.4833 21.9 38.7333 24 40.3ZM24 18.5C21.8 18.5 19.9167 17.7167 18.35 16.15C16.7833 14.5833 16 12.7 16 10.5C16 8.3 16.7833 6.41667 18.35 4.85C19.9167 3.28333 21.8 2.5 24 2.5C26.2 2.5 28.0833 3.28333 29.65 4.85C31.2167 6.41667 32 8.3 32 10.5C32 12.7 31.2167 14.5833 29.65 16.15C28.0833 17.7167 26.2 18.5 24 18.5ZM24 14.5C25.1 14.5 26.0417 14.1083 26.825 13.325C27.6083 12.5417 28 11.6 28 10.5C28 9.4 27.6083 8.45833 26.825 7.675C26.0417 6.89167 25.1 6.5 24 6.5C22.9 6.5 21.9583 6.89167 21.175 7.675C20.3917 8.45833 20 9.4 20 10.5C20 11.6 20.3917 12.5417 21.175 13.325C21.9583 14.1083 22.9 14.5 24 14.5Z" fill="#FECBB7"/>
</g>
<defs>
<clipPath id="clip0_236_13627">
<rect width="48" height="48" rx="8" fill="white"/>
</clipPath>
</defs>
</svg>
