<svg width="48" height="48" viewBox="0 0 48 48" fill="none" xmlns="http://www.w3.org/2000/svg">
<g clip-path="url(#clip0_236_13621)">
<path d="M10 44.5C8.9 44.5 7.95833 44.1083 7.175 43.325C6.39167 42.5417 6 41.6 6 40.5V16.5C6 15.4 6.39167 14.4583 7.175 13.675C7.95833 12.8917 8.9 12.5 10 12.5H14C14 9.73333 14.975 7.375 16.925 5.425C18.875 3.475 21.2333 2.5 24 2.5C26.7667 2.5 29.125 3.475 31.075 5.425C33.025 7.375 34 9.73333 34 12.5H38C39.1 12.5 40.0417 12.8917 40.825 13.675C41.6083 14.4583 42 15.4 42 16.5V40.5C42 41.6 41.6083 42.5417 40.825 43.325C40.0417 44.1083 39.1 44.5 38 44.5H10ZM10 40.5H38V16.5H10V40.5ZM24 28.5C26.7667 28.5 29.125 27.525 31.075 25.575C33.025 23.625 34 21.2667 34 18.5H30C30 20.1667 29.4167 21.5833 28.25 22.75C27.0833 23.9167 25.6667 24.5 24 24.5C22.3333 24.5 20.9167 23.9167 19.75 22.75C18.5833 21.5833 18 20.1667 18 18.5H14C14 21.2667 14.975 23.625 16.925 25.575C18.875 27.525 21.2333 28.5 24 28.5ZM18 12.5H30C30 10.8333 29.4167 9.41667 28.25 8.25C27.0833 7.08333 25.6667 6.5 24 6.5C22.3333 6.5 20.9167 7.08333 19.75 8.25C18.5833 9.41667 18 10.8333 18 12.5Z" fill="#FECBB7"/>
</g>
<defs>
<clipPath id="clip0_236_13621">
<rect width="48" height="48" rx="8" fill="white"/>
</clipPath>
</defs>
</svg>
