<svg width="32" height="32" viewBox="0 0 32 32" fill="none" xmlns="http://www.w3.org/2000/svg">
<g clip-path="url(#clip0_78_3079)">
<path d="M5.33325 11.9999C4.95547 11.9999 4.63881 11.8722 4.38325 11.6166C4.1277 11.3611 3.99992 11.0444 3.99992 10.6666C3.99992 10.2888 4.1277 9.97217 4.38325 9.71661C4.63881 9.46105 4.95547 9.33328 5.33325 9.33328H9.33325C10.0666 9.33328 10.6944 9.59439 11.2166 10.1166C11.7388 10.6388 11.9999 11.2666 11.9999 11.9999H5.33325ZM7.99992 23.9999C9.11103 23.9999 10.0555 23.6111 10.8333 22.8333C11.611 22.0555 11.9999 21.1111 11.9999 19.9999C11.9999 18.8888 11.611 17.9444 10.8333 17.1666C10.0555 16.3888 9.11103 15.9999 7.99992 15.9999C6.88881 15.9999 5.94436 16.3888 5.16658 17.1666C4.38881 17.9444 3.99992 18.8888 3.99992 19.9999C3.99992 21.1111 4.38881 22.0555 5.16658 22.8333C5.94436 23.6111 6.88881 23.9999 7.99992 23.9999ZM25.9999 23.9999C26.5555 23.9999 27.0277 23.8055 27.4166 23.4166C27.8055 23.0277 27.9999 22.5555 27.9999 21.9999C27.9999 21.4444 27.8055 20.9722 27.4166 20.5833C27.0277 20.1944 26.5555 19.9999 25.9999 19.9999C25.4444 19.9999 24.9721 20.1944 24.5833 20.5833C24.1944 20.9722 23.9999 21.4444 23.9999 21.9999C23.9999 22.5555 24.1944 23.0277 24.5833 23.4166C24.9721 23.8055 25.4444 23.9999 25.9999 23.9999ZM7.99992 21.9999C7.44436 21.9999 6.97214 21.8055 6.58325 21.4166C6.19436 21.0277 5.99992 20.5555 5.99992 19.9999C5.99992 19.4444 6.19436 18.9722 6.58325 18.5833C6.97214 18.1944 7.44436 17.9999 7.99992 17.9999C8.55547 17.9999 9.0277 18.1944 9.41658 18.5833C9.80547 18.9722 9.99992 19.4444 9.99992 19.9999C9.99992 20.5555 9.80547 21.0277 9.41658 21.4166C9.0277 21.8055 8.55547 21.9999 7.99992 21.9999ZM26.6666 17.3666C27.2444 17.4777 27.7221 17.6277 28.0999 17.8166C28.4777 18.0055 28.8888 18.3111 29.3333 18.7333V10.6666C29.3333 9.93328 29.0721 9.3055 28.5499 8.78328C28.0277 8.26105 27.3999 7.99994 26.6666 7.99994H18.2666L16.8666 6.53328L18.7333 4.66661L17.7999 3.73328L13.0666 8.46661L14.0666 9.39994L15.9333 7.53328L17.3333 8.93328V11.9999C17.3333 12.7333 17.0721 13.3611 16.5499 13.8833C16.0277 14.4055 15.3999 14.6666 14.6666 14.6666H11.9666C12.4777 15.0444 12.8888 15.4333 13.1999 15.8333C13.511 16.2333 13.8221 16.7333 14.1333 17.3333H14.6666C16.1333 17.3333 17.3888 16.8111 18.4333 15.7666C19.4777 14.7222 19.9999 13.4666 19.9999 11.9999V10.6666H26.6666V17.3666ZM21.3666 21.3333C21.4999 20.7333 21.661 20.2499 21.8499 19.8833C22.0388 19.5166 22.3333 19.1111 22.7333 18.6666H14.5333C14.6221 19.1777 14.6666 19.6222 14.6666 19.9999C14.6666 20.3777 14.6221 20.8222 14.5333 21.3333H21.3666ZM25.9999 26.6666C24.711 26.6666 23.611 26.2111 22.6999 25.2999C21.7888 24.3888 21.3333 23.2888 21.3333 21.9999C21.3333 20.7111 21.7888 19.6111 22.6999 18.6999C23.611 17.7888 24.711 17.3333 25.9999 17.3333C27.2888 17.3333 28.3888 17.7888 29.2999 18.6999C30.211 19.6111 30.6666 20.7111 30.6666 21.9999C30.6666 23.2888 30.211 24.3888 29.2999 25.2999C28.3888 26.2111 27.2888 26.6666 25.9999 26.6666ZM7.99992 26.6666C6.15547 26.6666 4.58325 26.0166 3.28325 24.7166C1.98325 23.4166 1.33325 21.8444 1.33325 19.9999C1.33325 18.1555 1.98325 16.5833 3.28325 15.2833C4.58325 13.9833 6.15547 13.3333 7.99992 13.3333C9.84436 13.3333 11.4166 13.9833 12.7166 15.2833C14.0166 16.5833 14.6666 18.1555 14.6666 19.9999C14.6666 21.8444 14.0166 23.4166 12.7166 24.7166C11.4166 26.0166 9.84436 26.6666 7.99992 26.6666Z" fill="#FECBB7"/>
</g>
<defs>
<clipPath id="clip0_78_3079">
<rect width="32" height="32" rx="8" fill="white"/>
</clipPath>
</defs>
</svg>
