<svg width="32" height="32" viewBox="0 0 32 32" fill="none" xmlns="http://www.w3.org/2000/svg">
<g clip-path="url(#clip0_78_3191)">
<path d="M12.6667 17.3333C13.0444 17.3333 13.3611 17.2055 13.6167 16.95C13.8722 16.6944 14 16.3777 14 16C14 15.6222 13.8722 15.3055 13.6167 15.05C13.3611 14.7944 13.0444 14.6666 12.6667 14.6666C12.2889 14.6666 11.9722 14.7944 11.7167 15.05C11.4611 15.3055 11.3333 15.6222 11.3333 16C11.3333 16.3777 11.4611 16.6944 11.7167 16.95C11.9722 17.2055 12.2889 17.3333 12.6667 17.3333ZM17.3333 17.3333C17.7111 17.3333 18.0278 17.2055 18.2833 16.95C18.5389 16.6944 18.6667 16.3777 18.6667 16C18.6667 15.6222 18.5389 15.3055 18.2833 15.05C18.0278 14.7944 17.7111 14.6666 17.3333 14.6666C16.9556 14.6666 16.6389 14.7944 16.3833 15.05C16.1278 15.3055 16 15.6222 16 16C16 16.3777 16.1278 16.6944 16.3833 16.95C16.6389 17.2055 16.9556 17.3333 17.3333 17.3333ZM22 17.3333C22.3778 17.3333 22.6944 17.2055 22.95 16.95C23.2056 16.6944 23.3333 16.3777 23.3333 16C23.3333 15.6222 23.2056 15.3055 22.95 15.05C22.6944 14.7944 22.3778 14.6666 22 14.6666C21.6222 14.6666 21.3056 14.7944 21.05 15.05C20.7944 15.3055 20.6667 15.6222 20.6667 16C20.6667 16.3777 20.7944 16.6944 21.05 16.95C21.3056 17.2055 21.6222 17.3333 22 17.3333ZM12 25.3333C11.5556 25.3333 11.1389 25.2333 10.75 25.0333C10.3611 24.8333 10.0444 24.5555 9.8 24.2L4 16L9.8 7.79996C10.0444 7.4444 10.3611 7.16663 10.75 6.96663C11.1389 6.76663 11.5556 6.66663 12 6.66663H25.3333C26.0667 6.66663 26.6944 6.92774 27.2167 7.44996C27.7389 7.97218 28 8.59996 28 9.33329V22.6666C28 23.4 27.7389 24.0277 27.2167 24.55C26.6944 25.0722 26.0667 25.3333 25.3333 25.3333H12ZM12 22.6666H25.3333V9.33329H12L7.26667 16L12 22.6666Z" fill="#FECBB7"/>
</g>
<defs>
<clipPath id="clip0_78_3191">
<rect width="32" height="32" rx="8" fill="white"/>
</clipPath>
</defs>
</svg>
