<svg width="32" height="32" viewBox="0 0 32 32" fill="none" xmlns="http://www.w3.org/2000/svg">
<g clip-path="url(#clip0_78_3082)">
<path d="M1.3999 28V24.2667C1.3999 23.5333 1.58879 22.8444 1.96657 22.2C2.34435 21.5556 2.86657 21.0667 3.53324 20.7333C4.66657 20.1556 5.94435 19.6667 7.36657 19.2667C8.78879 18.8667 10.3555 18.6667 12.0666 18.6667C13.7777 18.6667 15.3443 18.8667 16.7666 19.2667C18.1888 19.6667 19.4666 20.1556 20.5999 20.7333C21.2666 21.0667 21.7888 21.5556 22.1666 22.2C22.5443 22.8444 22.7332 23.5333 22.7332 24.2667V28H1.3999ZM4.06657 25.3333H20.0666V24.2667C20.0666 24.0222 20.0055 23.8 19.8832 23.6C19.761 23.4 19.5999 23.2444 19.3999 23.1333C18.5999 22.7333 17.5721 22.3333 16.3166 21.9333C15.061 21.5333 13.6443 21.3333 12.0666 21.3333C10.4888 21.3333 9.07212 21.5333 7.81657 21.9333C6.56101 22.3333 5.53324 22.7333 4.73324 23.1333C4.53324 23.2444 4.37212 23.4 4.2499 23.6C4.12768 23.8 4.06657 24.0222 4.06657 24.2667V25.3333ZM12.0666 17.3333C10.5999 17.3333 9.34435 16.8111 8.2999 15.7667C7.25546 14.7222 6.73324 13.4667 6.73324 12H6.3999C6.1999 12 6.03879 11.9389 5.91657 11.8167C5.79435 11.6944 5.73324 11.5333 5.73324 11.3333C5.73324 11.1333 5.79435 10.9722 5.91657 10.85C6.03879 10.7278 6.1999 10.6667 6.3999 10.6667H6.73324C6.73324 9.66667 6.97768 8.76667 7.46657 7.96667C7.95546 7.16667 8.5999 6.53333 9.3999 6.06667V7.33333C9.3999 7.53333 9.46101 7.69444 9.58323 7.81667C9.70546 7.93889 9.86657 8 10.0666 8C10.2666 8 10.4277 7.93889 10.5499 7.81667C10.6721 7.69444 10.7332 7.53333 10.7332 7.33333V5.53333C10.9332 5.46667 11.1443 5.41667 11.3666 5.38333C11.5888 5.35 11.8221 5.33333 12.0666 5.33333C12.311 5.33333 12.5443 5.35 12.7666 5.38333C12.9888 5.41667 13.1999 5.46667 13.3999 5.53333V7.33333C13.3999 7.53333 13.461 7.69444 13.5832 7.81667C13.7055 7.93889 13.8666 8 14.0666 8C14.2666 8 14.4277 7.93889 14.5499 7.81667C14.6721 7.69444 14.7332 7.53333 14.7332 7.33333V6.06667C15.5332 6.53333 16.1777 7.16667 16.6666 7.96667C17.1555 8.76667 17.3999 9.66667 17.3999 10.6667H17.7332C17.9332 10.6667 18.0943 10.7278 18.2166 10.85C18.3388 10.9722 18.3999 11.1333 18.3999 11.3333C18.3999 11.5333 18.3388 11.6944 18.2166 11.8167C18.0943 11.9389 17.9332 12 17.7332 12H17.3999C17.3999 13.4667 16.8777 14.7222 15.8332 15.7667C14.7888 16.8111 13.5332 17.3333 12.0666 17.3333ZM12.0666 14.6667C12.7999 14.6667 13.4277 14.4056 13.9499 13.8833C14.4721 13.3611 14.7332 12.7333 14.7332 12H9.3999C9.3999 12.7333 9.66101 13.3611 10.1832 13.8833C10.7055 14.4056 11.3332 14.6667 12.0666 14.6667ZM22.0666 20L21.8666 19C21.7332 18.9556 21.6055 18.9056 21.4832 18.85C21.361 18.7944 21.2443 18.7111 21.1332 18.6L20.1999 18.9333L19.5332 17.7333L20.2666 17.0667V16.2667L19.5332 15.6L20.1999 14.4L21.1332 14.7333C21.2221 14.6444 21.3332 14.5667 21.4666 14.5C21.5999 14.4333 21.7332 14.3778 21.8666 14.3333L22.0666 13.3333H23.3999L23.5999 14.3333C23.7332 14.3778 23.8666 14.4333 23.9999 14.5C24.1332 14.5667 24.2443 14.6444 24.3332 14.7333L25.2666 14.4L25.9332 15.6L25.1999 16.2667V17.0667L25.9332 17.7333L25.2666 18.9333L24.3332 18.6C24.2221 18.7111 24.1055 18.7944 23.9832 18.85C23.861 18.9056 23.7332 18.9556 23.5999 19L23.3999 20H22.0666ZM22.7332 17.6667C22.9999 17.6667 23.2332 17.5667 23.4332 17.3667C23.6332 17.1667 23.7332 16.9333 23.7332 16.6667C23.7332 16.4 23.6332 16.1667 23.4332 15.9667C23.2332 15.7667 22.9999 15.6667 22.7332 15.6667C22.4666 15.6667 22.2332 15.7667 22.0332 15.9667C21.8332 16.1667 21.7332 16.4 21.7332 16.6667C21.7332 16.9333 21.8332 17.1667 22.0332 17.3667C22.2332 17.5667 22.4666 17.6667 22.7332 17.6667ZM25.1332 13.3333L24.8666 11.9333C24.6666 11.8667 24.4832 11.7833 24.3166 11.6833C24.1499 11.5833 23.9999 11.4667 23.8666 11.3333L22.4666 11.8L21.5332 10.2L22.6666 9.2C22.6221 9.08889 22.5999 9 22.5999 8.93333V8.4C22.5999 8.33333 22.6221 8.24444 22.6666 8.13333L21.5332 7.13333L22.4666 5.53333L23.8666 6C23.9999 5.86667 24.1499 5.75 24.3166 5.65C24.4832 5.55 24.6666 5.46667 24.8666 5.4L25.1332 4H26.9999L27.2666 5.4C27.4666 5.46667 27.6499 5.55 27.8166 5.65C27.9832 5.75 28.1332 5.86667 28.2666 6L29.6666 5.53333L30.5999 7.13333L29.4666 8.13333C29.511 8.24444 29.5332 8.33333 29.5332 8.4V8.93333C29.5332 9 29.511 9.08889 29.4666 9.2L30.5999 10.2L29.6666 11.8L28.2666 11.3333C28.1332 11.4667 27.9832 11.5833 27.8166 11.6833C27.6499 11.7833 27.4666 11.8667 27.2666 11.9333L26.9999 13.3333H25.1332ZM26.0666 10.3333C26.5332 10.3333 26.9277 10.1722 27.2499 9.85C27.5721 9.52778 27.7332 9.13333 27.7332 8.66667C27.7332 8.2 27.5721 7.80556 27.2499 7.48333C26.9277 7.16111 26.5332 7 26.0666 7C25.5999 7 25.2055 7.16111 24.8832 7.48333C24.561 7.80556 24.3999 8.2 24.3999 8.66667C24.3999 9.13333 24.561 9.52778 24.8832 9.85C25.2055 10.1722 25.5999 10.3333 26.0666 10.3333Z" fill="#FECBB7"/>
</g>
<defs>
<clipPath id="clip0_78_3082">
<rect width="32" height="32" rx="8" fill="white"/>
</clipPath>
</defs>
</svg>
