<svg width="32" height="32" viewBox="0 0 32 32" fill="none" xmlns="http://www.w3.org/2000/svg">
<g clip-path="url(#clip0_78_3185)">
<path d="M7.99992 29.3334C7.26659 29.3334 6.63881 29.0723 6.11659 28.55C5.59436 28.0278 5.33325 27.4 5.33325 26.6667V13.3334C5.33325 12.6 5.59436 11.9723 6.11659 11.45C6.63881 10.9278 7.26659 10.6667 7.99992 10.6667H9.33325V8.00004C9.33325 6.1556 9.98325 4.58337 11.2833 3.28337C12.5833 1.98337 14.1555 1.33337 15.9999 1.33337C17.8444 1.33337 19.4166 1.98337 20.7166 3.28337C22.0166 4.58337 22.6666 6.1556 22.6666 8.00004V10.6667H23.9999C24.7333 10.6667 25.361 10.9278 25.8833 11.45C26.4055 11.9723 26.6666 12.6 26.6666 13.3334V26.6667C26.6666 27.4 26.4055 28.0278 25.8833 28.55C25.361 29.0723 24.7333 29.3334 23.9999 29.3334H7.99992ZM7.99992 26.6667H23.9999V13.3334H7.99992V26.6667ZM15.9999 22.6667C16.7333 22.6667 17.361 22.4056 17.8833 21.8834C18.4055 21.3612 18.6666 20.7334 18.6666 20C18.6666 19.2667 18.4055 18.6389 17.8833 18.1167C17.361 17.5945 16.7333 17.3334 15.9999 17.3334C15.2666 17.3334 14.6388 17.5945 14.1166 18.1167C13.5944 18.6389 13.3333 19.2667 13.3333 20C13.3333 20.7334 13.5944 21.3612 14.1166 21.8834C14.6388 22.4056 15.2666 22.6667 15.9999 22.6667ZM11.9999 10.6667H19.9999V8.00004C19.9999 6.88893 19.611 5.94449 18.8333 5.16671C18.0555 4.38893 17.111 4.00004 15.9999 4.00004C14.8888 4.00004 13.9444 4.38893 13.1666 5.16671C12.3888 5.94449 11.9999 6.88893 11.9999 8.00004V10.6667Z" fill="#FECBB7"/>
</g>
<defs>
<clipPath id="clip0_78_3185">
<rect width="32" height="32" rx="8" fill="white"/>
</clipPath>
</defs>
</svg>
