<svg width="32" height="32" viewBox="0 0 32 32" fill="none" xmlns="http://www.w3.org/2000/svg">
<g clip-path="url(#clip0_78_3091)">
<path d="M2.66675 25.3333V17.3333C2.66675 16.7333 2.78897 16.1888 3.03341 15.7C3.27786 15.2111 3.60008 14.7777 4.00008 14.4V10.6666C4.00008 9.55552 4.38897 8.61107 5.16675 7.83329C5.94453 7.05551 6.88897 6.66663 8.00008 6.66663H13.3334C13.8445 6.66663 14.3223 6.76107 14.7667 6.94996C15.2112 7.13885 15.6223 7.39996 16.0001 7.73329C16.3779 7.39996 16.789 7.13885 17.2334 6.94996C17.6779 6.76107 18.1556 6.66663 18.6667 6.66663H24.0001C25.1112 6.66663 26.0556 7.05551 26.8334 7.83329C27.6112 8.61107 28.0001 9.55552 28.0001 10.6666V14.4C28.4001 14.7777 28.7223 15.2111 28.9667 15.7C29.2112 16.1888 29.3334 16.7333 29.3334 17.3333V25.3333H26.6667V22.6666H5.33341V25.3333H2.66675ZM17.3334 13.3333H25.3334V10.6666C25.3334 10.2888 25.2056 9.97218 24.9501 9.71663C24.6945 9.46107 24.3779 9.33329 24.0001 9.33329H18.6667C18.289 9.33329 17.9723 9.46107 17.7167 9.71663C17.4612 9.97218 17.3334 10.2888 17.3334 10.6666V13.3333ZM6.66675 13.3333H14.6667V10.6666C14.6667 10.2888 14.539 9.97218 14.2834 9.71663C14.0279 9.46107 13.7112 9.33329 13.3334 9.33329H8.00008C7.6223 9.33329 7.30564 9.46107 7.05008 9.71663C6.79453 9.97218 6.66675 10.2888 6.66675 10.6666V13.3333ZM5.33341 20H26.6667V17.3333C26.6667 16.9555 26.539 16.6388 26.2834 16.3833C26.0279 16.1277 25.7112 16 25.3334 16H6.66675C6.28897 16 5.9723 16.1277 5.71675 16.3833C5.46119 16.6388 5.33341 16.9555 5.33341 17.3333V20Z" fill="#FECBB7"/>
</g>
<defs>
<clipPath id="clip0_78_3091">
<rect width="32" height="32" rx="8" fill="white"/>
</clipPath>
</defs>
</svg>
