<svg width="32" height="32" viewBox="0 0 32 32" fill="none" xmlns="http://www.w3.org/2000/svg">
<g clip-path="url(#clip0_78_3094)">
<path d="M6.66675 28C5.55564 28 4.61119 27.6111 3.83341 26.8333C3.05564 26.0556 2.66675 25.1111 2.66675 24C2.66675 22.8889 3.05564 21.9444 3.83341 21.1667C4.61119 20.3889 5.55564 20 6.66675 20H25.3334C26.4445 20 27.389 20.3889 28.1667 21.1667C28.9445 21.9444 29.3334 22.8889 29.3334 24C29.3334 25.1111 28.9445 26.0556 28.1667 26.8333C27.389 27.6111 26.4445 28 25.3334 28H6.66675ZM6.66675 25.3333H25.3334C25.7112 25.3333 26.0279 25.2056 26.2834 24.95C26.539 24.6944 26.6667 24.3778 26.6667 24C26.6667 23.6222 26.539 23.3056 26.2834 23.05C26.0279 22.7944 25.7112 22.6667 25.3334 22.6667H6.66675C6.28897 22.6667 5.9723 22.7944 5.71675 23.05C5.46119 23.3056 5.33341 23.6222 5.33341 24C5.33341 24.3778 5.46119 24.6944 5.71675 24.95C5.9723 25.2056 6.28897 25.3333 6.66675 25.3333ZM13.3334 17.3333C12.9556 17.3333 12.639 17.2056 12.3834 16.95C12.1279 16.6944 12.0001 16.3778 12.0001 16V5.33333C12.0001 4.95556 12.1279 4.63889 12.3834 4.38333C12.639 4.12778 12.9556 4 13.3334 4H24.0001C24.3779 4 24.6945 4.12778 24.9501 4.38333C25.2056 4.63889 25.3334 4.95556 25.3334 5.33333V16C25.3334 16.3778 25.2056 16.6944 24.9501 16.95C24.6945 17.2056 24.3779 17.3333 24.0001 17.3333H13.3334ZM14.6667 14.6667H22.6667V6.66667H14.6667V14.6667ZM2.66675 14.6V12.0333H9.23342V14.6H2.66675ZM16.0001 10.6667H21.3334V8.03333H16.0001V10.6667ZM5.33341 10.6667H9.23342V8.03333H5.33341V10.6667Z" fill="#FECBB7"/>
</g>
<defs>
<clipPath id="clip0_78_3094">
<rect width="32" height="32" rx="8" fill="white"/>
</clipPath>
</defs>
</svg>
