<svg width="32" height="32" viewBox="0 0 32 32" fill="none" xmlns="http://www.w3.org/2000/svg">
<g clip-path="url(#clip0_78_3088)">
<path d="M8.70006 25.3333C7.56673 25.3333 6.62229 24.9555 5.86673 24.2C5.11118 23.4444 4.7334 22.5 4.7334 21.3666C4.7334 20.2333 5.11118 19.2833 5.86673 18.5166C6.62229 17.75 7.56673 17.3666 8.70006 17.3666C9.8334 17.3666 10.7778 17.7444 11.5334 18.5C12.289 19.2555 12.6667 20.2 12.6667 21.3333C12.6667 22.4666 12.289 23.4166 11.5334 24.1833C10.7778 24.95 9.8334 25.3333 8.70006 25.3333ZM5.10007 14.6333V6.66663H6.80007V14.6333H5.10007ZM8.70006 23.8C9.38895 23.8 9.95562 23.5666 10.4001 23.1C10.8445 22.6333 11.0667 22.0444 11.0667 21.3333C11.0667 20.6222 10.8501 20.0388 10.4167 19.5833C9.9834 19.1277 9.41118 18.9 8.70006 18.9C8.01118 18.9 7.44451 19.1277 7.00006 19.5833C6.55562 20.0388 6.3334 20.6222 6.3334 21.3333C6.3334 22.0444 6.55562 22.6333 7.00006 23.1C7.44451 23.5666 8.01118 23.8 8.70006 23.8ZM8.3334 14.6333V6.66663H10.2001L13.2001 11.7333L13.1334 10.4666V6.66663H14.8001V14.6333H13.1001L9.90006 9.26663L10.0001 10.5333V14.6333H8.3334ZM17.0667 25.3333C16.1334 25.3333 15.389 25.0333 14.8334 24.4333C14.2778 23.8333 14.0001 23.0333 14.0001 22.0333V17.3666H15.6334V22.1333C15.6334 22.6 15.7723 22.9888 16.0501 23.3C16.3278 23.6111 16.6667 23.7666 17.0667 23.7666C17.4667 23.7666 17.8001 23.6111 18.0667 23.3C18.3334 22.9888 18.4667 22.6 18.4667 22.1333V17.3666H20.1001V22.0333C20.1001 23.0333 19.8223 23.8333 19.2667 24.4333C18.7112 25.0333 17.9778 25.3333 17.0667 25.3333ZM23.5334 25.3333V18.9333H21.4001V17.3666H27.2667V18.9333H25.1667V25.3333H23.5334Z" fill="#FECBB7"/>
</g>
<defs>
<clipPath id="clip0_78_3088">
<rect width="32" height="32" rx="8" fill="white"/>
</clipPath>
</defs>
</svg>
