<svg width="32" height="32" viewBox="0 0 32 32" fill="none" xmlns="http://www.w3.org/2000/svg">
<g clip-path="url(#clip0_78_3179)">
<path d="M9.33325 29.3333V17.1333C8.19992 16.8222 7.24992 16.2 6.48325 15.2666C5.71659 14.3333 5.33325 13.2444 5.33325 12V2.66663H7.99992V12H9.33325V2.66663H11.9999V12H13.3333V2.66663H15.9999V12C15.9999 13.2444 15.6166 14.3333 14.8499 15.2666C14.0833 16.2 13.1333 16.8222 11.9999 17.1333V29.3333H9.33325ZM22.6666 29.3333V18.6666H18.6666V9.33329C18.6666 7.48885 19.3166 5.91663 20.6166 4.61663C21.9166 3.31663 23.4888 2.66663 25.3333 2.66663V29.3333H22.6666Z" fill="#FECBB7"/>
</g>
<defs>
<clipPath id="clip0_78_3179">
<rect width="32" height="32" rx="8" fill="white"/>
</clipPath>
</defs>
</svg>
