<svg width="42" height="40" viewBox="0 0 42 40" fill="none" xmlns="http://www.w3.org/2000/svg">
<path d="M16.2655 7.21689C12.7527 7.88228 10.2836 10.4415 8.85818 14.8944C8.14545 17.0953 7.78909 19.2706 7.78909 21.4203C7.78909 21.6763 7.78909 21.9066 7.78909 22.1113C7.84 22.2649 7.89091 22.6488 7.94182 23.263H16.2655V40H0V24.5681C0 16.993 1.50182 11.158 4.50546 7.06334C7.50909 2.96865 11.4291 0.614203 16.2655 0V7.21689ZM42 7.21689C39.2 7.67754 37.0618 9.26424 35.5855 11.977C34.16 14.6897 33.4473 17.8119 33.4473 21.3436C33.4473 21.6507 33.4473 21.9578 33.4473 22.2649C33.4982 22.572 33.5745 22.9047 33.6764 23.263H42V40H25.6582V24.5681C25.6582 18.4773 26.9309 13.0518 29.4764 8.29175C32.0218 3.48049 36.1964 0.716571 42 0V7.21689Z" fill="#FC6326"/>
</svg>
