<svg width="1440" height="498" viewBox="0 0 1440 498" fill="none" xmlns="http://www.w3.org/2000/svg">
<g clip-path="url(#clip0_2628_127)">
<g opacity="0.5">
<path d="M981.583 0.33439C655.027 0.334362 390.3 265.061 390.3 591.617C390.3 918.174 655.026 1182.9 981.583 1182.9C1308.14 1182.9 1572.87 918.174 1572.87 591.618C1572.87 265.061 1308.14 0.334419 981.583 0.33439Z" fill="url(#paint0_linear_2628_127)" fill-opacity="0.4"/>
<path d="M459.283 0.334574C132.727 0.334545 -132 265.061 -132 591.618C-132 918.174 132.726 1182.9 459.283 1182.9C785.84 1182.9 1050.57 918.174 1050.57 591.618C1050.57 265.061 785.84 0.334602 459.283 0.334574Z" fill="url(#paint1_linear_2628_127)" fill-opacity="0.4"/>
<path d="M720.433 61.4338C393.877 61.4337 129.15 326.16 129.15 652.717C129.15 979.273 393.877 1244 720.433 1244C1046.99 1244 1311.72 979.274 1311.72 652.717C1311.72 326.16 1046.99 61.4338 720.433 61.4338Z" fill="url(#paint2_linear_2628_127)" fill-opacity="0.4"/>
</g>
</g>
<defs>
<linearGradient id="paint0_linear_2628_127" x1="720.433" y1="420.145" x2="720.433" y2="55.5207" gradientUnits="userSpaceOnUse">
<stop stop-color="#FD976E" stop-opacity="0"/>
<stop offset="1" stop-color="#FD976E" stop-opacity="0.5"/>
</linearGradient>
<linearGradient id="paint1_linear_2628_127" x1="720.433" y1="420.146" x2="720.433" y2="55.521" gradientUnits="userSpaceOnUse">
<stop stop-color="#FD976E" stop-opacity="0"/>
<stop offset="1" stop-color="#FD976E" stop-opacity="0.5"/>
</linearGradient>
<linearGradient id="paint2_linear_2628_127" x1="720.433" y1="420.145" x2="720.433" y2="55.5209" gradientUnits="userSpaceOnUse">
<stop stop-color="#FD976E" stop-opacity="0"/>
<stop offset="1" stop-color="#FD976E" stop-opacity="0.5"/>
</linearGradient>
<clipPath id="clip0_2628_127">
<rect width="1440" height="498" fill="white"/>
</clipPath>
</defs>
</svg>
