<svg width="56" height="57" viewBox="0 0 56 57" fill="none" xmlns="http://www.w3.org/2000/svg">
<rect y="0.5" width="56" height="56" rx="28" fill="#CDF9D1" fill-opacity="0.5"/>
<path d="M28.0001 22.6667C27.514 22.6667 27.1008 22.4965 26.7605 22.1562C26.4202 21.816 26.2501 21.4028 26.2501 20.9167C26.2501 20.4305 26.4202 20.0174 26.7605 19.6771C27.1008 19.3368 27.514 19.1667 28.0001 19.1667C28.4862 19.1667 28.8994 19.3368 29.2397 19.6771C29.5799 20.0174 29.7501 20.4305 29.7501 20.9167C29.7501 21.4028 29.5799 21.816 29.2397 22.1562C28.8994 22.4965 28.4862 22.6667 28.0001 22.6667ZM28.0001 41.3333C26.3862 41.3333 25.0105 40.7646 23.873 39.6271C22.7355 38.4896 22.1667 37.1139 22.1667 35.5V21.5C22.1667 19.8861 22.7355 18.5104 23.873 17.3729C25.0105 16.2354 26.3862 15.6667 28.0001 15.6667C29.614 15.6667 30.9897 16.2354 32.1272 17.3729C33.2647 18.5104 33.8334 19.8861 33.8334 21.5V35.5C33.8334 37.1139 33.2647 38.4896 32.1272 39.6271C30.9897 40.7646 29.614 41.3333 28.0001 41.3333ZM28.0001 23.8333C28.8167 23.8333 29.507 23.5514 30.0709 22.9875C30.6348 22.4236 30.9167 21.7333 30.9167 20.9167C30.9167 20.1 30.6348 19.4097 30.0709 18.8458C29.507 18.2819 28.8167 18 28.0001 18C27.1834 18 26.4931 18.2819 25.9292 18.8458C25.3654 19.4097 25.0834 20.1 25.0834 20.9167C25.0834 21.7333 25.3654 22.4236 25.9292 22.9875C26.4931 23.5514 27.1834 23.8333 28.0001 23.8333ZM28.0001 39C28.9723 39 29.7987 38.6597 30.4792 37.9792C31.1598 37.2986 31.5001 36.4722 31.5001 35.5V24.7958C31.014 25.243 30.4695 25.5833 29.8667 25.8167C29.264 26.05 28.6417 26.1667 28.0001 26.1667C27.3584 26.1667 26.7362 26.05 26.1334 25.8167C25.5306 25.5833 24.9862 25.243 24.5001 24.7958V35.5C24.5001 36.4722 24.8404 37.2986 25.5209 37.9792C26.2015 38.6597 27.0279 39 28.0001 39ZM26.2501 33.1667C26.5806 33.1667 26.8577 33.0549 27.0813 32.8312C27.3049 32.6076 27.4167 32.3305 27.4167 32C27.4167 31.6694 27.3049 31.3924 27.0813 31.1687C26.8577 30.9451 26.5806 30.8333 26.2501 30.8333C25.9195 30.8333 25.6424 30.9451 25.4188 31.1687C25.1952 31.3924 25.0834 31.6694 25.0834 32C25.0834 32.3305 25.1952 32.6076 25.4188 32.8312C25.6424 33.0549 25.9195 33.1667 26.2501 33.1667ZM26.2501 29.6667C26.5806 29.6667 26.8577 29.5549 27.0813 29.3312C27.3049 29.1076 27.4167 28.8305 27.4167 28.5C27.4167 28.1694 27.3049 27.8924 27.0813 27.6687C26.8577 27.4451 26.5806 27.3333 26.2501 27.3333C25.9195 27.3333 25.6424 27.4451 25.4188 27.6687C25.1952 27.8924 25.0834 28.1694 25.0834 28.5C25.0834 28.8305 25.1952 29.1076 25.4188 29.3312C25.6424 29.5549 25.9195 29.6667 26.2501 29.6667ZM29.7501 29.6667C30.0806 29.6667 30.3577 29.5549 30.5813 29.3312C30.8049 29.1076 30.9167 28.8305 30.9167 28.5C30.9167 28.1694 30.8049 27.8924 30.5813 27.6687C30.3577 27.4451 30.0806 27.3333 29.7501 27.3333C29.4195 27.3333 29.1424 27.4451 28.9188 27.6687C28.6952 27.8924 28.5834 28.1694 28.5834 28.5C28.5834 28.8305 28.6952 29.1076 28.9188 29.3312C29.1424 29.5549 29.4195 29.6667 29.7501 29.6667ZM29.7501 33.1667C30.0806 33.1667 30.3577 33.0549 30.5813 32.8312C30.8049 32.6076 30.9167 32.3305 30.9167 32C30.9167 31.6694 30.8049 31.3924 30.5813 31.1687C30.3577 30.9451 30.0806 30.8333 29.7501 30.8333C29.4195 30.8333 29.1424 30.9451 28.9188 31.1687C28.6952 31.3924 28.5834 31.6694 28.5834 32C28.5834 32.3305 28.6952 32.6076 28.9188 32.8312C29.1424 33.0549 29.4195 33.1667 29.7501 33.1667ZM26.2501 36.6667C26.5806 36.6667 26.8577 36.5549 27.0813 36.3312C27.3049 36.1076 27.4167 35.8305 27.4167 35.5C27.4167 35.1694 27.3049 34.8924 27.0813 34.6687C26.8577 34.4451 26.5806 34.3333 26.2501 34.3333C25.9195 34.3333 25.6424 34.4451 25.4188 34.6687C25.1952 34.8924 25.0834 35.1694 25.0834 35.5C25.0834 35.8305 25.1952 36.1076 25.4188 36.3312C25.6424 36.5549 25.9195 36.6667 26.2501 36.6667ZM29.7501 36.6667C30.0806 36.6667 30.3577 36.5549 30.5813 36.3312C30.8049 36.1076 30.9167 35.8305 30.9167 35.5C30.9167 35.1694 30.8049 34.8924 30.5813 34.6687C30.3577 34.4451 30.0806 34.3333 29.7501 34.3333C29.4195 34.3333 29.1424 34.4451 28.9188 34.6687C28.6952 34.8924 28.5834 35.1694 28.5834 35.5C28.5834 35.8305 28.6952 36.1076 28.9188 36.3312C29.1424 36.5549 29.4195 36.6667 29.7501 36.6667Z" fill="#06BC18"/>
</svg>
