<svg width="56" height="57" viewBox="0 0 56 57" fill="none" xmlns="http://www.w3.org/2000/svg">
<rect y="0.5" width="56" height="56" rx="28" fill="#CDF9D1" fill-opacity="0.5"/>
<path d="M30.7416 24.475C30.5083 23.8917 30.1632 23.4347 29.7062 23.1042C29.2493 22.7736 28.7 22.6083 28.0583 22.6083C27.7083 22.6083 27.368 22.6569 27.0375 22.7542C26.7069 22.8514 26.4055 23.0361 26.1333 23.3083L24.4416 21.6167C24.7139 21.3444 25.0833 21.0965 25.55 20.8729C26.0166 20.6493 26.4444 20.5083 26.8333 20.45V18H29.1666V20.3917C30.0416 20.5667 30.8097 20.9215 31.4708 21.4562C32.1319 21.991 32.6277 22.6861 32.9583 23.5417L30.7416 24.475ZM37.1 40.8667L31.7333 35.5C31.4416 35.7917 31.043 36.0299 30.5375 36.2146C30.0319 36.3993 29.575 36.5111 29.1666 36.55V39H26.8333V36.4917C25.7444 36.2194 24.8354 35.7236 24.1062 35.0042C23.3771 34.2847 22.8472 33.3806 22.5166 32.2917L24.85 31.3583C25.0833 32.175 25.4771 32.875 26.0312 33.4583C26.5854 34.0417 27.3194 34.3333 28.2333 34.3333C28.5833 34.3333 28.9041 34.2896 29.1958 34.2021C29.4875 34.1146 29.7694 33.9833 30.0416 33.8083L15.6333 19.4L17.2666 17.7667L38.7333 39.2333L37.1 40.8667Z" fill="#06BC18"/>
</svg>
