<svg width="56" height="56" viewBox="0 0 56 56" fill="none" xmlns="http://www.w3.org/2000/svg">
<rect width="56" height="56" rx="28" fill="#F9CDE0" fill-opacity="0.3"/>
<path d="M27.9999 26.8334C27.0277 26.8334 26.2013 26.4931 25.5208 25.8126C24.8402 25.132 24.4999 24.3056 24.4999 23.3334C24.4999 22.3612 24.8402 21.5348 25.5208 20.8542C26.2013 20.1737 27.0277 19.8334 27.9999 19.8334C28.9722 19.8334 29.7985 20.1737 30.4791 20.8542C31.1597 21.5348 31.4999 22.3612 31.4999 23.3334C31.4999 24.3056 31.1597 25.132 30.4791 25.8126C29.7985 26.4931 28.9722 26.8334 27.9999 26.8334ZM27.9999 24.5001C28.3305 24.5001 28.6076 24.3883 28.8312 24.1646C29.0548 23.941 29.1666 23.6639 29.1666 23.3334C29.1666 23.0028 29.0548 22.7258 28.8312 22.5021C28.6076 22.2785 28.3305 22.1667 27.9999 22.1667C27.6694 22.1667 27.3923 22.2785 27.1687 22.5021C26.9451 22.7258 26.8333 23.0028 26.8333 23.3334C26.8333 23.6639 26.9451 23.941 27.1687 24.1646C27.3923 24.3883 27.6694 24.5001 27.9999 24.5001ZM20.9999 33.8334V31.6167C20.9999 31.2084 21.102 30.8244 21.3062 30.4646C21.5104 30.1049 21.7874 29.8181 22.1374 29.6042C23.0124 29.0987 23.936 28.7049 24.9083 28.423C25.8805 28.141 26.911 28.0001 27.9999 28.0001C29.0888 28.0001 30.1194 28.141 31.0916 28.423C32.0638 28.7049 32.9874 29.0987 33.8624 29.6042C34.2124 29.8181 34.4895 30.1049 34.6937 30.4646C34.8979 30.8244 34.9999 31.2084 34.9999 31.6167V33.8334H20.9999ZM27.9999 30.3334C27.2027 30.3334 26.4249 30.4306 25.6666 30.6251C24.9083 30.8195 24.1888 31.1112 23.5083 31.5001H32.4916C31.811 31.1112 31.0916 30.8195 30.3333 30.6251C29.5749 30.4306 28.7972 30.3334 27.9999 30.3334ZM38.7624 23.5084C38.1597 22.0889 37.3187 20.8396 36.2395 19.7605C35.1604 18.6813 33.911 17.8403 32.4916 17.2376L33.3958 15.0792C35.1069 15.7792 36.609 16.7806 37.902 18.0834C39.1951 19.3862 40.2013 20.8931 40.9208 22.6042L38.7624 23.5084ZM17.2374 23.5084L15.0791 22.6042C15.7985 20.8931 16.8048 19.391 18.0979 18.098C19.3909 16.8049 20.893 15.7987 22.6041 15.0792L23.5083 17.2376C22.0888 17.8403 20.8395 18.6813 19.7604 19.7605C18.6812 20.8396 17.8402 22.0889 17.2374 23.5084ZM22.6041 40.9209C20.893 40.2209 19.3909 39.2195 18.0979 37.9167C16.8048 36.6139 15.7985 35.107 15.0791 33.3959L17.2374 32.4917C17.8402 33.9112 18.6812 35.1605 19.7604 36.2396C20.8395 37.3188 22.0888 38.1598 23.5083 38.7626L22.6041 40.9209ZM33.3958 40.9209L32.4916 38.7626C33.911 38.1598 35.1604 37.3188 36.2395 36.2396C37.3187 35.1605 38.1597 33.9112 38.7624 32.4917L40.9208 33.3959C40.2208 35.107 39.2194 36.6091 37.9166 37.9021C36.6138 39.1952 35.1069 40.2014 33.3958 40.9209ZM27.9999 31.5001H32.4916H23.5083H27.9999Z" fill="#E30562"/>
</svg>
