<svg width="56" height="56" viewBox="0 0 56 56" fill="none" xmlns="http://www.w3.org/2000/svg">
<rect width="56" height="56" rx="28" fill="#F9CDE0" fill-opacity="0.3"/>
<path d="M17 34V31.2C17 30.6333 17.1458 30.1125 17.4375 29.6375C17.7292 29.1625 18.1167 28.8 18.6 28.55C19.6333 28.0333 20.6833 27.6458 21.75 27.3875C22.8167 27.1292 23.9 27 25 27C25.75 27 26.4917 27.0583 27.225 27.175C27.9583 27.2917 28.6917 27.475 29.425 27.725C29.1417 27.9583 28.8833 28.2125 28.65 28.4875C28.4167 28.7625 28.2083 29.0583 28.025 29.375C27.525 29.2417 27.025 29.1458 26.525 29.0875C26.025 29.0292 25.5167 29 25 29C24.0667 29 23.1417 29.1125 22.225 29.3375C21.3083 29.5625 20.4 29.9 19.5 30.35C19.35 30.4333 19.2292 30.55 19.1375 30.7C19.0458 30.85 19 31.0167 19 31.2V32H27.075C27.0417 32.3333 27.025 32.6667 27.025 33C27.025 33.3333 27.0417 33.6667 27.075 34H17ZM25 26C23.9 26 22.9583 25.6083 22.175 24.825C21.3917 24.0417 21 23.1 21 22C21 20.9 21.3917 19.9583 22.175 19.175C22.9583 18.3917 23.9 18 25 18C26.1 18 27.0417 18.3917 27.825 19.175C28.6083 19.9583 29 20.9 29 22C29 23.1 28.6083 24.0417 27.825 24.825C27.0417 25.6083 26.1 26 25 26ZM25 24C25.55 24 26.0208 23.8042 26.4125 23.4125C26.8042 23.0208 27 22.55 27 22C27 21.45 26.8042 20.9792 26.4125 20.5875C26.0208 20.1958 25.55 20 25 20C24.45 20 23.9792 20.1958 23.5875 20.5875C23.1958 20.9792 23 21.45 23 22C23 22.55 23.1958 23.0208 23.5875 23.4125C23.9792 23.8042 24.45 24 25 24ZM35 22C35 23.1 34.6083 24.0417 33.825 24.825C33.0417 25.6083 32.1 26 31 26C30.8167 26 30.5833 25.9792 30.3 25.9375C30.0167 25.8958 29.7833 25.85 29.6 25.8C30.05 25.2667 30.3958 24.675 30.6375 24.025C30.8792 23.375 31 22.7 31 22C31 21.3 30.8792 20.625 30.6375 19.975C30.3958 19.325 30.05 18.7333 29.6 18.2C29.8333 18.1167 30.0667 18.0625 30.3 18.0375C30.5333 18.0125 30.7667 18 31 18C32.1 18 33.0417 18.3917 33.825 19.175C34.6083 19.9583 35 20.9 35 22ZM34 38C32.6167 38 31.4375 37.5125 30.4625 36.5375C29.4875 35.5625 29 34.3833 29 33C29 31.6 29.4875 30.4167 30.4625 29.45C31.4375 28.4833 32.6167 28 34 28C35.4 28 36.5833 28.4833 37.55 29.45C38.5167 30.4167 39 31.6 39 33C39 34.3833 38.5167 35.5625 37.55 36.5375C36.5833 37.5125 35.4 38 34 38ZM33.3 35.25L36.825 31.7L36.125 31L33.3 33.825L31.875 32.4L31.175 33.125L33.3 35.25Z" fill="#E30562"/>
</svg>
