<svg width="56" height="56" viewBox="0 0 56 56" fill="none" xmlns="http://www.w3.org/2000/svg">
<rect width="56" height="56" rx="28" fill="#F9CDE0" fill-opacity="0.3"/>
<path d="M28.0001 26.8334C29.2834 26.8334 30.382 26.3764 31.2959 25.4625C32.2098 24.5487 32.6667 23.45 32.6667 22.1667V18.6667H23.3334V22.1667C23.3334 23.45 23.7904 24.5487 24.7042 25.4625C25.6181 26.3764 26.7167 26.8334 28.0001 26.8334ZM18.6667 39.6667V37.3334H21.0001V33.8334C21.0001 32.6473 21.2772 31.5341 21.8313 30.4938C22.3855 29.4535 23.1584 28.6223 24.1501 28C23.1584 27.3778 22.3855 26.5466 21.8313 25.5063C21.2772 24.466 21.0001 23.3528 21.0001 22.1667V18.6667H18.6667V16.3334H37.3334V18.6667H35.0001V22.1667C35.0001 23.3528 34.723 24.466 34.1688 25.5063C33.6147 26.5466 32.8417 27.3778 31.8501 28C32.8417 28.6223 33.6147 29.4535 34.1688 30.4938C34.723 31.5341 35.0001 32.6473 35.0001 33.8334V37.3334H37.3334V39.6667H18.6667Z" fill="#E30562"/>
</svg>
