<svg width="57" height="56" viewBox="0 0 57 56" fill="none" xmlns="http://www.w3.org/2000/svg">
<rect x="0.5" width="56" height="56" rx="28" fill="#FC6326" fill-opacity="0.07"/>
<path d="M19.1666 39.6667C18.5249 39.6667 17.9756 39.4382 17.5187 38.9812C17.0617 38.5243 16.8333 37.975 16.8333 37.3333V24.5C16.8333 23.8583 17.0617 23.309 17.5187 22.8521C17.9756 22.3951 18.5249 22.1667 19.1666 22.1667H24.9999V18.6667C24.9999 18.025 25.2284 17.4757 25.6853 17.0187C26.1423 16.5618 26.6916 16.3333 27.3333 16.3333H29.6666C30.3083 16.3333 30.8576 16.5618 31.3145 17.0187C31.7714 17.4757 31.9999 18.025 31.9999 18.6667V22.1667H37.8333C38.4749 22.1667 39.0242 22.3951 39.4812 22.8521C39.9381 23.309 40.1666 23.8583 40.1666 24.5V37.3333C40.1666 37.975 39.9381 38.5243 39.4812 38.9812C39.0242 39.4382 38.4749 39.6667 37.8333 39.6667H19.1666ZM19.1666 37.3333H37.8333V24.5H31.9999C31.9999 25.1417 31.7714 25.691 31.3145 26.1479C30.8576 26.6049 30.3083 26.8333 29.6666 26.8333H27.3333C26.6916 26.8333 26.1423 26.6049 25.6853 26.1479C25.2284 25.691 24.9999 25.1417 24.9999 24.5H19.1666V37.3333ZM21.4999 35H28.4999V34.475C28.4999 34.1444 28.4076 33.8382 28.2228 33.5562C28.0381 33.2743 27.7805 33.0555 27.4499 32.9C27.061 32.725 26.6673 32.5937 26.2687 32.5062C25.8701 32.4187 25.4471 32.375 24.9999 32.375C24.5527 32.375 24.1298 32.4187 23.7312 32.5062C23.3326 32.5937 22.9388 32.725 22.5499 32.9C22.2194 33.0555 21.9617 33.2743 21.777 33.5562C21.5923 33.8382 21.4999 34.1444 21.4999 34.475V35ZM30.8333 33.25H35.4999V31.5H30.8333V33.25ZM24.9999 31.5C25.486 31.5 25.8992 31.3299 26.2395 30.9896C26.5798 30.6493 26.7499 30.2361 26.7499 29.75C26.7499 29.2639 26.5798 28.8507 26.2395 28.5104C25.8992 28.1701 25.486 28 24.9999 28C24.5138 28 24.1006 28.1701 23.7603 28.5104C23.4201 28.8507 23.2499 29.2639 23.2499 29.75C23.2499 30.2361 23.4201 30.6493 23.7603 30.9896C24.1006 31.3299 24.5138 31.5 24.9999 31.5ZM30.8333 29.75H35.4999V28H30.8333V29.75ZM27.3333 24.5H29.6666V18.6667H27.3333V24.5Z" fill="#FC6326"/>
</svg>
