<svg width="57" height="56" viewBox="0 0 57 56" fill="none" xmlns="http://www.w3.org/2000/svg">
<rect x="0.5" width="56" height="56" rx="28" fill="#FC6326" fill-opacity="0.07"/>
<path d="M25.7 32.2L27.3333 30.5083L24.825 28L27.3333 25.4917L25.7 23.8L21.5 28L25.7 32.2ZM31.3 32.2L35.5 28L31.3 23.8L29.6667 25.4917L32.175 28L29.6667 30.5083L31.3 32.2ZM20.3333 38.5C19.6917 38.5 19.1424 38.2715 18.6854 37.8146C18.2285 37.3576 18 36.8083 18 36.1667V19.8333C18 19.1917 18.2285 18.6424 18.6854 18.1854C19.1424 17.7285 19.6917 17.5 20.3333 17.5H25.2333C25.4861 16.8 25.909 16.2361 26.5021 15.8083C27.0951 15.3806 27.7611 15.1667 28.5 15.1667C29.2389 15.1667 29.9049 15.3806 30.4979 15.8083C31.091 16.2361 31.5139 16.8 31.7667 17.5H36.6667C37.3083 17.5 37.8576 17.7285 38.3146 18.1854C38.7715 18.6424 39 19.1917 39 19.8333V36.1667C39 36.8083 38.7715 37.3576 38.3146 37.8146C37.8576 38.2715 37.3083 38.5 36.6667 38.5H20.3333ZM20.3333 36.1667H36.6667V19.8333H20.3333V36.1667ZM28.5 18.9583C28.7528 18.9583 28.9618 18.8757 29.1271 18.7104C29.2924 18.5451 29.375 18.3361 29.375 18.0833C29.375 17.8306 29.2924 17.6215 29.1271 17.4563C28.9618 17.291 28.7528 17.2083 28.5 17.2083C28.2472 17.2083 28.0382 17.291 27.8729 17.4563C27.7076 17.6215 27.625 17.8306 27.625 18.0833C27.625 18.3361 27.7076 18.5451 27.8729 18.7104C28.0382 18.8757 28.2472 18.9583 28.5 18.9583Z" fill="#FC6326"/>
</svg>
