<svg width="57" height="56" viewBox="0 0 57 56" fill="none" xmlns="http://www.w3.org/2000/svg">
<rect x="0.5" width="56" height="56" rx="28" fill="#FC6326" fill-opacity="0.07"/>
<path d="M26.7501 31.5H30.2501L29.5792 27.7375C29.9681 27.5431 30.2744 27.2611 30.498 26.8917C30.7216 26.5222 30.8334 26.1139 30.8334 25.6667C30.8334 25.025 30.6049 24.4757 30.148 24.0188C29.6911 23.5618 29.1417 23.3333 28.5001 23.3333C27.8584 23.3333 27.3091 23.5618 26.8522 24.0188C26.3952 24.4757 26.1667 25.025 26.1667 25.6667C26.1667 26.1139 26.2786 26.5222 26.5022 26.8917C26.7258 27.2611 27.032 27.5431 27.4209 27.7375L26.7501 31.5ZM28.5001 39.6667C25.7973 38.9861 23.5661 37.4354 21.8063 35.0146C20.0466 32.5938 19.1667 29.9056 19.1667 26.95V19.8333L28.5001 16.3333L37.8334 19.8333V26.95C37.8334 29.9056 36.9536 32.5938 35.1938 35.0146C33.4341 37.4354 31.2029 38.9861 28.5001 39.6667ZM28.5001 37.2167C30.5223 36.575 32.1945 35.2917 33.5167 33.3667C34.839 31.4417 35.5001 29.3028 35.5001 26.95V21.4375L28.5001 18.8125L21.5001 21.4375V26.95C21.5001 29.3028 22.1612 31.4417 23.4834 33.3667C24.8056 35.2917 26.4779 36.575 28.5001 37.2167Z" fill="#FC6326"/>
</svg>
