<svg width="57" height="56" viewBox="0 0 57 56" fill="none" xmlns="http://www.w3.org/2000/svg">
<rect x="0.5" width="56" height="56" rx="28" fill="#FC6326" fill-opacity="0.07"/>
<path d="M34.6115 16.3333H21.3885C21.0268 16.3333 20.8472 16.3333 20.6955 16.3473C19.0038 16.5025 17.6622 17.9107 17.5128 19.6852C17.5 19.845 17.5 20.0352 17.5 20.4132V37.6367C17.5 38.654 18.7355 39.0868 19.3177 38.2713C19.4079 38.1407 19.5285 38.0339 19.6691 37.9601C19.8098 37.8863 19.9662 37.8478 20.125 37.8478C20.2838 37.8478 20.4402 37.8863 20.5809 37.9601C20.7215 38.0339 20.8421 38.1407 20.9323 38.2713L21.4375 38.9783C21.5842 39.1908 21.7802 39.3645 22.0089 39.4845C22.2375 39.6045 22.4918 39.6672 22.75 39.6672C23.0082 39.6672 23.2625 39.6045 23.4911 39.4845C23.7198 39.3645 23.9158 39.1908 24.0625 38.9783C24.2092 38.7659 24.4052 38.5922 24.6339 38.4722C24.8625 38.3522 25.1168 38.2895 25.375 38.2895C25.6332 38.2895 25.8875 38.3522 26.1161 38.4722C26.3448 38.5922 26.5408 38.7659 26.6875 38.9783C26.8342 39.1908 27.0302 39.3645 27.2589 39.4845C27.4875 39.6045 27.7418 39.6672 28 39.6672C28.2582 39.6672 28.5125 39.6045 28.7411 39.4845C28.9698 39.3645 29.1658 39.1908 29.3125 38.9783C29.4592 38.7659 29.6552 38.5922 29.8839 38.4722C30.1125 38.3522 30.3668 38.2895 30.625 38.2895C30.8832 38.2895 31.1375 38.3522 31.3661 38.4722C31.5948 38.5922 31.7908 38.7659 31.9375 38.9783C32.0842 39.1908 32.2802 39.3645 32.5089 39.4845C32.7375 39.6045 32.9918 39.6672 33.25 39.6672C33.5082 39.6672 33.7625 39.6045 33.9911 39.4845C34.2198 39.3645 34.4158 39.1908 34.5625 38.9783L35.0677 38.2725C35.1579 38.1418 35.2785 38.035 35.4191 37.9612C35.5598 37.8875 35.7162 37.8489 35.875 37.8489C36.0338 37.8489 36.1902 37.8875 36.3309 37.9612C36.4715 38.035 36.5921 38.1418 36.6823 38.2725C37.2657 39.0868 38.5 38.654 38.5 37.6367V20.4132C38.5 20.0352 38.5 19.845 38.4872 19.6852C38.339 17.9107 36.9973 16.5025 35.3057 16.3473C35.1517 16.3333 34.972 16.3333 34.6115 16.3333Z" stroke="#FC6326" stroke-width="2"/>
<path d="M22.75 32.0833H33.25M30.3333 23.3333L25.6667 28M25.6667 23.3333L30.3333 28" stroke="#FC6326" stroke-width="2" stroke-linecap="round"/>
</svg>
