<svg width="24" height="26" viewBox="0 0 24 26" fill="none" xmlns="http://www.w3.org/2000/svg">
<path d="M18.6115 1.33334H5.3885C5.02683 1.33334 4.84717 1.33334 4.6955 1.34734C3.00383 1.5025 1.66217 2.91067 1.51283 4.68517C1.5 4.845 1.5 5.03517 1.5 5.41317V22.6367C1.5 23.654 2.7355 24.0868 3.31767 23.2713C3.40791 23.1407 3.52852 23.0339 3.66915 22.9601C3.80977 22.8863 3.9662 22.8478 4.125 22.8478C4.2838 22.8478 4.44023 22.8863 4.58085 22.9601C4.72148 23.0339 4.84209 23.1407 4.93233 23.2713L5.4375 23.9783C5.58417 24.1908 5.78024 24.3645 6.00886 24.4845C6.23748 24.6045 6.49181 24.6672 6.75 24.6672C7.00819 24.6672 7.26252 24.6045 7.49114 24.4845C7.71976 24.3645 7.91583 24.1908 8.0625 23.9783C8.20917 23.7659 8.40524 23.5922 8.63386 23.4722C8.86248 23.3522 9.11681 23.2895 9.375 23.2895C9.63319 23.2895 9.88752 23.3522 10.1161 23.4722C10.3448 23.5922 10.5408 23.7659 10.6875 23.9783C10.8342 24.1908 11.0302 24.3645 11.2589 24.4845C11.4875 24.6045 11.7418 24.6672 12 24.6672C12.2582 24.6672 12.5125 24.6045 12.7411 24.4845C12.9698 24.3645 13.1658 24.1908 13.3125 23.9783C13.4592 23.7659 13.6552 23.5922 13.8839 23.4722C14.1125 23.3522 14.3668 23.2895 14.625 23.2895C14.8832 23.2895 15.1375 23.3522 15.3661 23.4722C15.5948 23.5922 15.7908 23.7659 15.9375 23.9783C16.0842 24.1908 16.2802 24.3645 16.5089 24.4845C16.7375 24.6045 16.9918 24.6672 17.25 24.6672C17.5082 24.6672 17.7625 24.6045 17.9911 24.4845C18.2198 24.3645 18.4158 24.1908 18.5625 23.9783L19.0677 23.2725C19.1579 23.1418 19.2785 23.035 19.4191 22.9612C19.5598 22.8875 19.7162 22.8489 19.875 22.8489C20.0338 22.8489 20.1902 22.8875 20.3309 22.9612C20.4715 23.035 20.5921 23.1418 20.6823 23.2725C21.2657 24.0868 22.5 23.654 22.5 22.6367V5.41317C22.5 5.03517 22.5 4.845 22.4872 4.68517C22.339 2.91067 20.9973 1.5025 19.3057 1.34734C19.1517 1.33334 18.972 1.33334 18.6115 1.33334Z" stroke="#FC6326" stroke-width="2"/>
<path d="M6.75 17.0833H17.25M14.3333 8.33334L9.66667 13M9.66667 8.33334L14.3333 13" stroke="#FC6326" stroke-width="2" stroke-linecap="round"/>
</svg>
