<svg width="29" height="28" viewBox="0 0 29 28" fill="none" xmlns="http://www.w3.org/2000/svg">
<path d="M12.7501 17.5H16.2501L15.5792 13.7375C15.9681 13.5431 16.2744 13.2611 16.498 12.8917C16.7216 12.5222 16.8334 12.1139 16.8334 11.6667C16.8334 11.025 16.6049 10.4757 16.148 10.0188C15.6911 9.56182 15.1417 9.33334 14.5001 9.33334C13.8584 9.33334 13.3091 9.56182 12.8522 10.0188C12.3952 10.4757 12.1667 11.025 12.1667 11.6667C12.1667 12.1139 12.2786 12.5222 12.5022 12.8917C12.7258 13.2611 13.032 13.5431 13.4209 13.7375L12.7501 17.5ZM14.5001 25.6667C11.7973 24.9861 9.56605 23.4354 7.80633 21.0146C6.04661 18.5938 5.16675 15.9056 5.16675 12.95V5.83334L14.5001 2.33334L23.8334 5.83334V12.95C23.8334 15.9056 22.9536 18.5938 21.1938 21.0146C19.4341 23.4354 17.2029 24.9861 14.5001 25.6667ZM14.5001 23.2167C16.5223 22.575 18.1945 21.2917 19.5167 19.3667C20.839 17.4417 21.5001 15.3028 21.5001 12.95V7.43751L14.5001 4.81251L7.50008 7.43751V12.95C7.50008 15.3028 8.16119 17.4417 9.48342 19.3667C10.8056 21.2917 12.4779 22.575 14.5001 23.2167Z" fill="#FC6326"/>
</svg>
