<svg width="29" height="28" viewBox="0 0 29 28" fill="none" xmlns="http://www.w3.org/2000/svg">
<path d="M5.16659 25.6667C4.52492 25.6667 3.97561 25.4382 3.51867 24.9812C3.06172 24.5243 2.83325 23.975 2.83325 23.3333V10.5C2.83325 9.85833 3.06172 9.30902 3.51867 8.85208C3.97561 8.39513 4.52492 8.16666 5.16659 8.16666H10.9999V4.66666C10.9999 4.02499 11.2284 3.47569 11.6853 3.01874C12.1423 2.5618 12.6916 2.33333 13.3333 2.33333H15.6666C16.3083 2.33333 16.8576 2.5618 17.3145 3.01874C17.7714 3.47569 17.9999 4.02499 17.9999 4.66666V8.16666H23.8333C24.4749 8.16666 25.0242 8.39513 25.4812 8.85208C25.9381 9.30902 26.1666 9.85833 26.1666 10.5V23.3333C26.1666 23.975 25.9381 24.5243 25.4812 24.9812C25.0242 25.4382 24.4749 25.6667 23.8333 25.6667H5.16659ZM5.16659 23.3333H23.8333V10.5H17.9999C17.9999 11.1417 17.7714 11.691 17.3145 12.1479C16.8576 12.6049 16.3083 12.8333 15.6666 12.8333H13.3333C12.6916 12.8333 12.1423 12.6049 11.6853 12.1479C11.2284 11.691 10.9999 11.1417 10.9999 10.5H5.16659V23.3333ZM7.49992 21H14.4999V20.475C14.4999 20.1444 14.4076 19.8382 14.2228 19.5562C14.0381 19.2743 13.7805 19.0555 13.4499 18.9C13.061 18.725 12.6673 18.5937 12.2687 18.5062C11.8701 18.4187 11.4471 18.375 10.9999 18.375C10.5527 18.375 10.1298 18.4187 9.73117 18.5062C9.33256 18.5937 8.93881 18.725 8.54992 18.9C8.21936 19.0555 7.96172 19.2743 7.777 19.5562C7.59228 19.8382 7.49992 20.1444 7.49992 20.475V21ZM16.8333 19.25H21.4999V17.5H16.8333V19.25ZM10.9999 17.5C11.486 17.5 11.8992 17.3299 12.2395 16.9896C12.5798 16.6493 12.7499 16.2361 12.7499 15.75C12.7499 15.2639 12.5798 14.8507 12.2395 14.5104C11.8992 14.1701 11.486 14 10.9999 14C10.5138 14 10.1006 14.1701 9.76033 14.5104C9.42006 14.8507 9.24992 15.2639 9.24992 15.75C9.24992 16.2361 9.42006 16.6493 9.76033 16.9896C10.1006 17.3299 10.5138 17.5 10.9999 17.5ZM16.8333 15.75H21.4999V14H16.8333V15.75ZM13.3333 10.5H15.6666V4.66666H13.3333V10.5Z" fill="#FC6326"/>
</svg>
