<svg width="29" height="28" viewBox="0 0 29 28" fill="none" xmlns="http://www.w3.org/2000/svg">
<path d="M11.7 18.2L13.3333 16.5083L10.825 14L13.3333 11.4917L11.7 9.8L7.5 14L11.7 18.2ZM17.3 18.2L21.5 14L17.3 9.8L15.6667 11.4917L18.175 14L15.6667 16.5083L17.3 18.2ZM6.33333 24.5C5.69167 24.5 5.14236 24.2715 4.68542 23.8146C4.22847 23.3576 4 22.8083 4 22.1667V5.83334C4 5.19167 4.22847 4.64237 4.68542 4.18542C5.14236 3.72848 5.69167 3.50001 6.33333 3.50001H11.2333C11.4861 2.80001 11.909 2.23612 12.5021 1.80834C13.0951 1.38056 13.7611 1.16667 14.5 1.16667C15.2389 1.16667 15.9049 1.38056 16.4979 1.80834C17.091 2.23612 17.5139 2.80001 17.7667 3.50001H22.6667C23.3083 3.50001 23.8576 3.72848 24.3146 4.18542C24.7715 4.64237 25 5.19167 25 5.83334V22.1667C25 22.8083 24.7715 23.3576 24.3146 23.8146C23.8576 24.2715 23.3083 24.5 22.6667 24.5H6.33333ZM6.33333 22.1667H22.6667V5.83334H6.33333V22.1667ZM14.5 4.95834C14.7528 4.95834 14.9618 4.8757 15.1271 4.71042C15.2924 4.54514 15.375 4.33612 15.375 4.08334C15.375 3.83056 15.2924 3.62153 15.1271 3.45626C14.9618 3.29098 14.7528 3.20834 14.5 3.20834C14.2472 3.20834 14.0382 3.29098 13.8729 3.45626C13.7076 3.62153 13.625 3.83056 13.625 4.08334C13.625 4.33612 13.7076 4.54514 13.8729 4.71042C14.0382 4.8757 14.2472 4.95834 14.5 4.95834Z" fill="#FC6326"/>
</svg>
