<svg width="96" height="24" viewBox="0 0 96 24" fill="none" xmlns="http://www.w3.org/2000/svg">
<g clip-path="url(#clip0_202_1382)">
<path d="M8.69507 19.141C7.53345 19.141 6.5156 18.9436 5.6422 18.5489C4.76879 18.1542 4.13432 17.6033 3.73879 16.896V24H0.179688V5.05635H3.59097L3.73946 7.09115C4.49745 5.59519 6.14977 4.84688 8.69507 4.84688C9.60965 4.84688 10.4689 5.02537 11.2721 5.3837C12.0753 5.74136 12.7719 6.23035 13.3611 6.85137C13.9504 7.47238 14.4154 8.22878 14.7576 9.12056C15.0992 10.013 15.2706 10.9728 15.2706 12C15.2706 13.0272 15.0992 13.9877 14.7576 14.8794C14.4154 15.7719 13.9504 16.5263 13.3611 17.1426C12.7719 17.7595 12.076 18.2465 11.2721 18.6042C10.4689 18.9618 9.60965 19.141 8.69507 19.141ZM7.73122 7.86843C6.61887 7.86843 5.67527 8.25707 4.90108 9.03368C4.12689 9.81096 3.73946 10.7997 3.73946 12C3.73946 13.2003 4.12487 14.189 4.89501 14.9663C5.66514 15.7436 6.61077 16.1316 7.73122 16.1316C8.85166 16.1316 9.78042 15.7429 10.5431 14.9663C11.3052 14.189 11.6865 13.2009 11.6865 12C11.6865 10.7991 11.3038 9.82173 10.5371 9.04041C9.77097 8.25977 8.83546 7.86843 7.73122 7.86843Z" fill="#141414"/>
<path d="M22.7858 4.84688C23.9474 4.84688 24.9626 5.04423 25.8319 5.43893C26.7013 5.83363 27.3378 6.3846 27.7414 7.09183L27.902 5.05636H31.3005V18.9436H27.902L27.7414 16.8961C26.9834 18.3927 25.3311 19.141 22.7858 19.141C21.8712 19.141 21.012 18.9625 20.2088 18.6042C19.4056 18.2465 18.711 17.7595 18.1258 17.1426C17.5406 16.5263 17.0769 15.7719 16.7354 14.8794C16.3932 13.987 16.2224 13.0278 16.2224 12C16.2224 10.9722 16.3932 10.0124 16.7354 9.12057C17.0769 8.22811 17.5406 7.47239 18.1258 6.8507C18.7103 6.23036 19.4049 5.74068 20.2088 5.38303C21.012 5.02537 21.8712 4.84621 22.7858 4.84621M23.7496 16.1309C24.8701 16.1309 25.8157 15.7423 26.5859 14.9657C27.356 14.1884 27.7414 13.1976 27.7414 11.9933C27.7414 10.789 27.356 9.80018 26.5859 9.02694C25.815 8.25438 24.8694 7.86776 23.7496 7.86776C22.6299 7.86776 21.6998 8.25438 20.9377 9.02694C20.1757 9.80018 19.7943 10.7903 19.7943 11.9993C19.7943 13.2084 20.177 14.1783 20.9438 14.9596C21.7099 15.7402 22.6454 16.1309 23.7496 16.1309Z" fill="#141414"/>
<path d="M44.4392 8.59587L40.8801 8.83026C40.789 8.42748 40.544 8.07992 40.1444 7.78828C39.7448 7.49663 39.2649 7.35047 38.7047 7.35047C38.0291 7.35047 37.485 7.47979 37.0733 7.73911C36.6616 7.99843 36.4557 8.37023 36.4557 8.85586C36.4557 9.18455 36.5772 9.46205 36.8202 9.68837C37.0632 9.91468 37.3473 10.0871 37.6727 10.2063C37.998 10.3255 38.4577 10.4549 39.051 10.595C39.8913 10.7923 40.596 10.9769 41.1643 11.15C41.7326 11.3224 42.2705 11.5258 42.7774 11.7609C43.2843 11.9946 43.6752 12.2519 43.9512 12.5314C44.2273 12.8116 44.4433 13.1403 44.5999 13.5182C44.7565 13.8967 44.8266 14.3285 44.8104 14.8134C44.7693 16.1942 44.2232 17.2598 43.173 18.0074C42.1227 18.7557 40.6581 19.1295 38.7796 19.1295C36.9012 19.1295 35.5128 18.784 34.4166 18.0936C33.3205 17.4026 32.7029 16.4124 32.5625 15.1212L36.0973 14.8249C36.2208 15.3839 36.5381 15.8177 37.049 16.1262C37.56 16.434 38.1364 16.5882 38.7789 16.5882C39.4877 16.5882 40.0722 16.4448 40.5339 16.1565C40.9949 15.8689 41.2257 15.4661 41.2257 14.9481C41.2257 14.4302 40.9395 14.0456 40.3671 13.7209C39.7941 13.3963 39.0179 13.1228 38.0372 12.9005C37.0234 12.6621 36.2282 12.4445 35.6518 12.2472C35.0747 12.0498 34.5584 11.7973 34.1008 11.4888C33.6431 11.1803 33.3259 10.8186 33.149 10.4037C32.9715 9.98877 32.8831 9.46475 32.8831 8.83161C32.8831 7.54041 33.4062 6.55433 34.4524 5.87135C35.4986 5.18904 36.9491 4.84755 38.8032 4.84755C40.4589 4.84755 41.7792 5.16412 42.7639 5.79726C43.7487 6.4304 44.3069 7.36327 44.4385 8.59721" fill="#141414"/>
<path d="M47.1102 1.92366H50.6694V5.05635H54.1049V7.83138H50.6694V14.1338C50.6694 15.2681 51.098 15.8972 51.9545 16.0211C52.5809 16.1612 53.297 16.1524 54.1049 15.9962V18.9194C53.1735 19.0676 52.3088 19.141 51.5097 19.141C49.9195 19.141 48.7882 18.7423 48.1173 17.9448C47.4457 17.1473 47.1102 15.918 47.1102 14.2571V7.83138H45.219V5.05635H47.1102V1.92366Z" fill="#141414"/>
<path d="M62.0532 4.84688C63.1568 4.84688 64.1807 5.04019 65.1243 5.42681C66.0673 5.81343 66.8711 6.35833 67.5346 7.06084C68.1974 7.76403 68.7023 8.63561 69.0486 9.67557C69.3948 10.7155 69.5305 11.8606 69.4563 13.1107H58.1971C58.4111 14.0894 58.8728 14.87 59.5815 15.454C60.2902 16.0379 61.1137 16.3296 62.0532 16.3296C62.8686 16.3296 63.5915 16.1221 64.2226 15.7066C64.853 15.2916 65.341 14.7097 65.6872 13.9614L68.7401 15.4169C68.1138 16.5761 67.1992 17.4868 65.9964 18.1489C64.7936 18.811 63.4794 19.1417 62.0539 19.1417C60.6284 19.1417 59.4357 18.8581 58.3031 18.291C57.1698 17.7238 56.2573 16.8907 55.5654 15.7934C54.8729 14.6956 54.5273 13.4313 54.5273 12.0013C54.5273 10.5714 54.8736 9.30444 55.5654 8.20251C56.2573 7.10126 57.1698 6.26605 58.3031 5.69892C59.4357 5.13179 60.6864 4.84755 62.0539 4.84755M62.0539 7.67175C61.0651 7.67175 60.2227 7.96138 59.5268 8.54131C58.8303 9.12124 58.3875 9.90391 58.1978 10.8907H65.9221C65.7244 9.90391 65.2796 9.12124 64.5877 8.54131C63.8952 7.96138 63.0508 7.67175 62.0539 7.67175Z" fill="#141414"/>
<path d="M74.2898 0H70.7307V18.9436H74.2898V0Z" fill="#141414"/>
<path d="M82.4414 2.81141V6.85474H91.9119V16.3121H95.9711V2.81141H82.4414Z" fill="#141414"/>
<path d="M79.7354 10.1215C79.7354 15.0357 83.7197 19.0123 88.6449 19.0123H90.5591V8.21127H79.7354V10.1215Z" fill="#141414"/>
</g>
<defs>
<clipPath id="clip0_202_1382">
<rect width="95.7913" height="24" fill="white" transform="translate(0.179688)"/>
</clipPath>
</defs>
</svg>
