<svg width="142" height="20" viewBox="0 0 142 20" fill="none" xmlns="http://www.w3.org/2000/svg">
<g clip-path="url(#clip0_202_1393)">
<path d="M60.9683 12.8627H70.2707L65.357 4.62933L56.3233 19.5H52.2153L63.2023 1.659C63.4419 1.30299 63.7601 1.01172 64.1304 0.809587C64.5008 0.607457 64.9124 0.500355 65.3308 0.497254C65.7493 0.494153 66.1623 0.595143 66.5354 0.791763C66.9085 0.988383 67.2307 1.27491 67.4751 1.62733L78.4926 19.5H74.3847L72.4497 16.175H63.0375L60.9866 12.8627M103.671 16.175V0.677332H100.18V17.7013C100.179 17.9379 100.225 18.1722 100.314 18.3899C100.403 18.6076 100.534 18.8043 100.699 18.968C100.864 19.1434 101.061 19.2826 101.279 19.3773C101.498 19.4719 101.732 19.5201 101.968 19.519H117.838L119.908 16.194H103.653M45.9466 13.4073C47.5736 13.4073 49.1339 12.7367 50.2843 11.5431C51.4347 10.3494 52.081 8.73044 52.081 7.04233C52.081 5.35423 51.4347 3.73527 50.2843 2.5416C49.1339 1.34793 47.5736 0.677332 45.9466 0.677332H30.6869V19.5H34.1722V4.00867H45.733C46.5117 4.00867 47.2584 4.32962 47.809 4.90092C48.3596 5.47221 48.669 6.24706 48.669 7.055C48.669 7.86294 48.3596 8.63778 47.809 9.20908C47.2584 9.78038 46.5117 10.1013 45.733 10.1013H35.8996L46.3129 19.5H51.373L44.3779 13.4073H45.9466ZM9.25 19.5H19.7914C22.1555 19.4363 24.4022 18.4172 26.0525 16.6598C27.7029 14.9023 28.6265 12.5456 28.6265 10.0918C28.6265 7.63807 27.7029 5.28133 26.0525 3.52389C24.4022 1.76646 22.1555 0.747314 19.7914 0.683666H9.25C8.03947 0.651074 6.8349 0.870319 5.70733 1.32847C4.57976 1.78662 3.55202 2.4744 2.68472 3.35126C1.81742 4.22811 1.12812 5.27628 0.657466 6.43396C0.186812 7.59163 -0.0556641 8.83537 -0.0556641 10.0918C-0.0556641 11.3483 0.186812 12.592 0.657466 13.7497C1.12812 14.9074 1.81742 15.9556 2.68472 16.8324C3.55202 17.7093 4.57976 18.397 5.70733 18.8552C6.8349 19.3133 8.03947 19.5326 9.25 19.5ZM19.5534 16.1877H9.48195C7.95818 16.1367 6.51327 15.4728 5.45276 14.3363C4.39225 13.1999 3.7993 11.68 3.7993 10.0982C3.7993 8.5163 4.39225 6.99644 5.45276 5.86001C6.51327 4.72357 7.95818 4.05966 9.48195 4.00867H19.5534C20.34 3.98234 21.1237 4.12037 21.8579 4.41454C22.5921 4.70872 23.2619 5.15305 23.8273 5.72111C24.3927 6.28917 24.8423 6.96938 25.1494 7.72131C25.4564 8.47323 25.6146 9.28153 25.6146 10.0982C25.6146 10.9148 25.4564 11.7231 25.1494 12.475C24.8423 13.227 24.3927 13.9072 23.8273 14.4752C23.2619 15.0433 22.5921 15.4876 21.8579 15.7818C21.1237 16.076 20.34 16.214 19.5534 16.1877ZM85.7746 19.5H96.5357L98.5744 16.1877H86.0126C85.226 16.214 84.4422 16.076 83.708 15.7818C82.9738 15.4876 82.3041 15.0433 81.7387 14.4752C81.1733 13.9072 80.7237 13.227 80.4166 12.475C80.1096 11.7231 79.9514 10.9148 79.9514 10.0982C79.9514 9.28153 80.1096 8.47323 80.4166 7.72131C80.7237 6.96938 81.1733 6.28917 81.7387 5.72111C82.3041 5.15305 82.9738 4.70872 83.708 4.41454C84.4422 4.12037 85.226 3.98234 86.0126 4.00867H96.2366L98.2998 0.683666H85.7746C84.564 0.651074 83.3594 0.870319 82.2319 1.32847C81.1043 1.78662 80.0766 2.4744 79.2093 3.35126C78.342 4.22811 77.6527 5.27628 77.182 6.43396C76.7114 7.59163 76.4689 8.83537 76.4689 10.0918C76.4689 11.3483 76.7114 12.592 77.182 13.7497C77.6527 14.9074 78.342 15.9556 79.2093 16.8324C80.0766 17.7093 81.1043 18.397 82.2319 18.8552C83.3594 19.3133 84.564 19.5326 85.7746 19.5ZM128.422 16.1877C127.144 16.1882 125.899 15.7554 124.879 14.9552C123.859 14.155 123.119 13.0311 122.77 11.7543H137.676L139.727 8.43567H122.77C123.118 7.15833 123.858 6.03383 124.878 5.23347C125.899 4.43312 127.143 4.00078 128.422 4.00233H138.653L140.697 0.677332H128.184C125.82 0.740981 123.574 1.76012 121.923 3.51756C120.273 5.27499 119.349 7.63173 119.349 10.0855C119.349 12.5393 120.273 14.896 121.923 16.6534C123.574 18.4109 125.82 19.43 128.184 19.4937H138.946L140.99 16.1813H128.416" fill="#C74634"/>
</g>
<defs>
<clipPath id="clip0_202_1393">
<rect width="141" height="19" fill="white" transform="translate(0.179688 0.5)"/>
</clipPath>
</defs>
</svg>
