<svg width="62" height="24" viewBox="0 0 62 24" fill="none" xmlns="http://www.w3.org/2000/svg">
<g clip-path="url(#clip0_202_1395)">
<path d="M53.0344 0.406479C48.3723 0.406479 45.3281 3.62967 45.3281 8.95866C45.3281 15.5769 49.9902 17.4679 53.3325 17.4679C55.8445 17.4679 58.2288 16.4365 59.9531 14.61L57.803 12.4397C56.6534 13.4711 55.3336 14.0943 53.3751 14.0943C50.7779 14.0943 49.0323 12.5686 49.0323 10.4628H60.613C60.5918 10.4413 62.6141 0.406479 53.0344 0.406479ZM49.0323 7.58343C49.0323 4.74703 51.1611 3.3933 53.4389 3.3933C55.7168 3.3933 57.7817 4.79001 57.7817 7.58343H49.0323Z" fill="#00DC06"/>
<path d="M10.3943 7.30414C8.90409 7.11075 4.62517 7.2827 4.62517 5.30577C4.62517 4.14543 6.43467 3.50079 8.07386 3.50079C9.81949 3.47926 11.5225 3.97353 12.9701 4.919L15.2054 2.68425C14.5455 2.14705 12.0973 0.406532 8.07386 0.406532C4.41229 0.406532 1.11262 2.34045 1.11262 5.4347C1.11262 10.1835 6.79656 10.1835 9.15955 10.4199C10.6071 10.5703 11.9057 10.6562 11.9057 12.0744C11.9057 13.4067 9.90464 14.1373 8.3506 14.1373C5.81731 14.1373 4.30585 13.2993 2.81567 11.9455L0.431396 14.3737C2.49635 16.3935 5.2851 17.4894 8.15901 17.4679C12.4166 17.4679 15.5034 15.577 15.5034 11.7736C15.5034 9.25954 13.8217 7.75539 10.3943 7.30414Z" fill="#00DC06"/>
<path d="M22.6136 0.406489C20.2506 0.384968 17.9302 1.20154 16.0782 2.6842L18.3134 4.94044C19.5694 3.99497 21.0809 3.50074 22.6349 3.52223C25.4662 3.52223 26.3178 4.66109 26.3178 5.95036V7.56196H21.2725C19.3991 7.56196 15.7375 8.0347 15.7375 12.1819C15.7375 15.2331 17.4619 17.4679 21.5918 17.4679C23.6568 17.4679 25.2321 16.8017 26.3178 15.491V17.1456H29.9793V6.20822C29.9793 2.38338 27.6589 0.406489 22.6136 0.406489ZM26.3391 11.1719C26.3391 14.3307 24.1038 14.1587 22.124 14.1587C20.1442 14.1587 18.8243 13.6215 18.8243 12.2033C18.8243 10.8926 19.8675 10.4413 22.0388 10.4413H26.3391V11.1719Z" fill="#00DC06"/>
<path d="M41.2834 0.75029V2.57675C40.0274 1.13706 38.5372 0.406479 36.5148 0.406479C33.0449 0.406479 31.2567 2.36188 30.6606 4.46769C30.4264 5.24125 30.3625 6.72393 30.3625 8.91569C30.3625 10.9785 30.3838 12.8695 31.0863 14.3091C32.0869 16.329 34.4925 17.4679 36.5148 17.4679C38.4733 17.4679 40.1338 16.6943 41.2834 15.3621V16.3935C41.2834 17.5968 40.8789 18.3918 40.1125 19.015C39.3462 19.6381 38.3882 20.0249 37.047 20.0249C35.8336 20.0249 34.6841 19.3588 34.0241 18.8861L31.5547 21.3787C33.1513 22.6894 35.0459 23.5704 37.1109 23.5919C39.0907 23.6349 41.0279 22.9903 42.582 21.7225C44.0509 20.5621 44.9875 18.3489 44.9875 16.0282V0.75029H41.2834ZM41.2834 8.91569C41.2834 10.1835 41.2621 11.1289 41.1557 11.6232C40.9215 12.6761 39.7294 14.0728 37.558 14.0728C37.0045 14.0728 34.237 13.7505 33.9177 11.3223C33.8325 10.5273 33.7899 9.71074 33.8112 8.91569C33.8112 7.02476 33.8964 6.42308 33.9815 5.95035C34.1731 5.00488 35.4078 3.58669 37.558 3.58669C40.1764 3.58669 41.0279 5.39167 41.1557 6.10077C41.2621 7.02475 41.3047 7.97022 41.2834 8.91569Z" fill="#00DC06"/>
</g>
<defs>
<clipPath id="clip0_202_1395">
<rect width="61.1507" height="24" fill="white" transform="translate(0.0290527)"/>
</clipPath>
</defs>
</svg>
