<svg width="62" height="30" viewBox="0 0 62 30" fill="none" xmlns="http://www.w3.org/2000/svg">
<g clip-path="url(#clip0_202_1402)">
<path d="M61.0291 0H0.0290527V30H30.8642" fill="url(#paint0_linear_202_1402)"/>
<path d="M30.1939 6V20.1333L24.9654 6H19.7368L15.3126 17.7333C14.7764 14.8 11.6928 13.7333 9.27965 12.9333C7.67086 12.4 5.928 11.7333 5.928 10.8C5.928 10.1333 6.86646 9.46666 8.60932 9.6C9.81591 9.73333 10.8884 9.73333 13.0335 10.8L15.1785 7.2C13.1676 6.13333 10.4862 5.6 8.34119 5.6C5.79394 5.6 3.64888 6.4 2.30822 7.73333C1.36976 8.66667 0.967562 9.86666 0.833496 11.2C0.833496 13.0667 1.50383 14.4 2.97855 15.4667C4.18514 16.2667 5.65987 16.8 7.00053 17.2C8.74339 17.7333 10.084 18.2667 10.084 19.2C9.94998 20.4 8.60932 20.6667 7.67086 20.6667C6.06207 20.8 4.72141 20.5333 2.71042 19.3333L0.833496 22.9333C2.84449 24.1333 4.98954 24.6667 7.53679 24.6667C9.27965 24.6667 11.961 24.1333 13.4357 22.8L13.1676 24H18.2621L19.2005 21.7333C21.2115 22.2667 23.4906 22.4 25.5016 21.7333L26.172 24H35.2884V18.6667H37.1654C41.8577 18.6667 44.6731 16.4 44.6731 12.4C44.6731 7.86666 41.9917 6 36.2269 6H30.1939ZM20.4071 17.7333L22.284 11.7333H22.4181L24.295 17.7333C22.9544 18.1333 21.6137 18.1333 20.4071 17.7333ZM35.2884 14.6667V9.86666H36.6291C38.372 9.86666 39.7126 10.4 39.7126 12.1333C39.7126 14 38.372 14.6667 36.6291 14.6667H35.2884Z" fill="white"/>
</g>
<defs>
<linearGradient id="paint0_linear_202_1402" x1="0.0290527" y1="0" x2="0.0290527" y2="30" gradientUnits="userSpaceOnUse">
<stop stop-color="#00AAEE"/>
<stop offset="1" stop-color="#0055AA"/>
</linearGradient>
<clipPath id="clip0_202_1402">
<rect width="61" height="30" fill="white" transform="translate(0.0290527)"/>
</clipPath>
</defs>
</svg>
