<svg width="48" height="48" viewBox="0 0 48 48" fill="none" xmlns="http://www.w3.org/2000/svg">
<g clip-path="url(#clip0_202_1426)">
<path d="M12 44V35.4C10.1 33.6667 8.625 31.6417 7.575 29.325C6.525 27.0083 6 24.5667 6 22C6 17 7.75 12.75 11.25 9.25C14.75 5.75 19 4 24 4C28.1667 4 31.8583 5.225 35.075 7.675C38.2917 10.125 40.3833 13.3167 41.35 17.25L43.95 27.5C44.1167 28.1333 44 28.7083 43.6 29.225C43.2 29.7417 42.6667 30 42 30H38V36C38 37.1 37.6083 38.0417 36.825 38.825C36.0417 39.6083 35.1 40 34 40H30V44H26V36H34V26H39.4L37.5 18.25C36.7333 15.2167 35.1 12.75 32.6 10.85C30.1 8.95 27.2333 8 24 8C20.1333 8 16.8333 9.35 14.1 12.05C11.3667 14.75 10 18.0333 10 21.9C10 23.9 10.4083 25.8 11.225 27.6C12.0417 29.4 13.2 31 14.7 32.4L16 33.6V44H12ZM22 30H26L26.3 27.5C26.5667 27.4 26.8083 27.2833 27.025 27.15C27.2417 27.0167 27.4333 26.8667 27.6 26.7L29.9 27.7L31.9 24.3L29.9 22.8C29.9667 22.5333 30 22.2667 30 22C30 21.7333 29.9667 21.4667 29.9 21.2L31.9 19.7L29.9 16.3L27.6 17.3C27.4333 17.1333 27.2417 16.9833 27.025 16.85C26.8083 16.7167 26.5667 16.6 26.3 16.5L26 14H22L21.7 16.5C21.4333 16.6 21.1917 16.7167 20.975 16.85C20.7583 16.9833 20.5667 17.1333 20.4 17.3L18.1 16.3L16.1 19.7L18.1 21.2C18.0333 21.4667 18 21.7333 18 22C18 22.2667 18.0333 22.5333 18.1 22.8L16.1 24.3L18.1 27.7L20.4 26.7C20.5667 26.8667 20.7583 27.0167 20.975 27.15C21.1917 27.2833 21.4333 27.4 21.7 27.5L22 30ZM24 25C23.1667 25 22.4583 24.7083 21.875 24.125C21.2917 23.5417 21 22.8333 21 22C21 21.1667 21.2917 20.4583 21.875 19.875C22.4583 19.2917 23.1667 19 24 19C24.8333 19 25.5417 19.2917 26.125 19.875C26.7083 20.4583 27 21.1667 27 22C27 22.8333 26.7083 23.5417 26.125 24.125C25.5417 24.7083 24.8333 25 24 25Z" fill="#FC6326" fill-opacity="0.5"/>
</g>
<defs>
<clipPath id="clip0_202_1426">
<rect width="48" height="48" rx="8" fill="white"/>
</clipPath>
</defs>
</svg>
