<?xml version="1.0" standalone="no"?>
<!DOCTYPE svg PUBLIC "-//W3C//DTD SVG 20010904//EN"
 "http://www.w3.org/TR/2001/REC-SVG-20010904/DTD/svg10.dtd">
<svg version="1.0" xmlns="http://www.w3.org/2000/svg"
 width="694.000000pt" height="360.000000pt" viewBox="0 0 694.000000 360.000000"
 preserveAspectRatio="xMidYMid meet">

<g transform="translate(0.000000,360.000000) scale(0.100000,-0.100000)"
fill="#000000" stroke="none">
<path d="M1698 2839 c-66 -9 -98 -24 -98 -43 0 -28 25 -36 86 -26 32 5 89 12
126 15 67 7 84 18 72 50 -7 17 -87 19 -186 4z"/>
<path d="M2014 2805 c-10 -26 3 -43 43 -55 21 -6 68 -23 105 -37 71 -27 98
-26 98 6 0 25 -26 43 -113 76 -77 28 -125 32 -133 10z"/>
<path d="M1421 2745 c-106 -57 -142 -86 -139 -109 5 -32 34 -31 91 6 28 18 74
45 102 60 38 20 50 32 50 50 0 35 -31 33 -104 -7z"/>
<path d="M1860 2635 c-24 -29 0 -48 76 -62 38 -7 83 -15 101 -19 25 -5 33 -2
42 14 20 38 -28 64 -149 78 -45 5 -58 3 -70 -11z"/>
<path d="M1603 2616 c-91 -34 -112 -57 -79 -85 11 -9 36 -4 112 22 89 30 99
35 99 57 0 21 -5 25 -35 27 -19 1 -63 -8 -97 -21z"/>
<path d="M2360 2610 c-9 -17 -4 -28 41 -75 51 -54 72 -65 84 -44 12 18 -4 53
-44 97 -43 46 -65 52 -81 22z"/>
<path d="M1163 2543 c-42 -46 -123 -163 -123 -179 0 -18 26 -35 42 -29 9 4 33
32 54 63 22 31 54 73 72 95 35 42 41 71 16 81 -23 9 -24 9 -61 -31z"/>
<path d="M2146 2544 c-21 -20 -15 -29 72 -103 74 -63 104 -73 110 -35 3 22
-46 78 -111 125 -46 34 -50 34 -71 13z"/>
<path d="M1400 2504 c-42 -28 -101 -87 -116 -117 -12 -23 -13 -31 -3 -43 18
-22 32 -15 109 60 50 49 70 75 68 90 -4 27 -27 31 -58 10z"/>
<path d="M4363 2463 c-12 -2 -34 -18 -48 -34 -20 -25 -25 -41 -25 -88 0 -66
17 -97 66 -117 40 -17 116 -17 164 -1 90 31 94 196 6 232 -33 14 -113 18 -163
8z"/>
<path d="M1815 2436 c-34 -25 -8 -50 63 -60 71 -10 92 -5 92 24 0 35 -119 63
-155 36z"/>
<path d="M1634 2410 c-58 -23 -89 -52 -81 -75 9 -22 35 -19 113 13 59 24 69
32 69 53 0 32 -33 35 -101 9z"/>
<path d="M3097 2423 c-4 -3 -7 -190 -7 -415 l0 -408 -26 -10 c-14 -6 -37 -10
-51 -10 l-25 0 6 -77 c4 -43 10 -93 13 -112 l6 -33 116 4 c143 5 187 23 220
91 20 42 21 56 21 510 l0 467 -133 0 c-74 0 -137 -3 -140 -7z"/>
<path d="M2514 2379 c-4 -6 3 -53 15 -103 11 -50 23 -104 26 -119 7 -34 31
-45 52 -24 15 14 14 24 -1 104 -23 114 -39 153 -65 153 -11 0 -23 -5 -27 -11z"/>
<path d="M2027 2373 c-17 -16 -3 -41 48 -86 63 -56 112 -146 122 -225 6 -55
23 -78 48 -68 20 7 20 98 -1 163 -38 118 -177 256 -217 216z"/>
<path d="M2341 2326 c-9 -11 -6 -33 16 -101 29 -90 42 -106 69 -84 20 16 11
74 -21 147 -24 53 -43 64 -64 38z"/>
<path d="M1433 2267 c-69 -78 -92 -147 -52 -155 21 -4 143 153 135 174 -10 25
-52 16 -83 -19z"/>
<path d="M1208 2273 c-18 -22 -53 -106 -62 -149 -5 -22 -2 -35 9 -44 27 -22
44 -2 81 94 26 68 32 92 23 102 -15 19 -33 18 -51 -3z"/>
<path d="M1693 2240 c-69 -28 -146 -101 -178 -172 -110 -241 73 -519 344 -522
50 -1 66 3 74 16 18 27 -4 40 -79 49 -130 16 -224 79 -274 184 -88 185 35 395
232 395 71 0 96 -10 147 -55 102 -92 91 -245 -23 -316 -24 -16 -44 -19 -85
-16 -47 3 -59 9 -88 40 -26 29 -33 45 -33 78 0 74 82 127 123 81 23 -25 21
-49 -4 -62 -16 -9 -18 -14 -8 -26 16 -20 26 -18 54 11 36 35 34 88 -4 126 -58
57 -170 30 -211 -52 -53 -104 10 -227 133 -260 140 -37 283 88 281 245 -1 103
-61 204 -148 248 -60 31 -184 35 -253 8z"/>
<path d="M976 2208 c-17 -26 -48 -192 -40 -213 8 -19 34 -27 49 -15 6 5 20 57
30 115 14 85 15 108 5 120 -17 21 -27 19 -44 -7z"/>
<path d="M4889 2186 c-81 -29 -147 -105 -183 -209 -38 -114 -38 -321 1 -420
56 -141 139 -197 297 -197 71 0 166 17 193 33 6 4 3 50 -5 112 l-15 107 -27
-6 c-101 -20 -126 -19 -156 7 -28 24 -29 28 -32 133 -4 127 9 180 50 203 24
14 33 13 100 -6 40 -12 74 -20 76 -18 3 3 32 216 32 236 0 4 -26 14 -58 23
-70 19 -221 21 -273 2z"/>
<path d="M5465 2180 c-72 -28 -120 -72 -154 -143 -37 -75 -51 -143 -51 -253 0
-206 77 -352 214 -403 44 -16 79 -21 157 -21 96 0 245 23 263 40 7 7 -9 198
-17 206 -1 1 -42 -6 -92 -17 -114 -24 -152 -24 -192 1 -31 18 -60 81 -47 102
3 4 90 8 194 8 l188 0 7 76 c21 224 -31 355 -162 404 -74 28 -236 27 -308 0z
m199 -238 c9 -11 17 -36 19 -58 l2 -39 -74 -3 -74 -3 5 46 c3 25 11 52 18 60
18 21 83 19 104 -3z"/>
<path d="M3500 1865 c0 -347 6 -398 51 -450 40 -45 85 -58 180 -53 66 4 86 10
129 36 28 18 53 32 56 32 2 0 4 -11 4 -25 l0 -25 135 0 135 0 0 400 0 400
-140 0 -140 0 0 -275 c0 -266 -1 -275 -20 -285 -12 -6 -38 -10 -58 -8 l-37 3
-3 283 -2 282 -145 0 -145 0 0 -315z"/>
<path d="M4307 2174 c-4 -4 -7 -187 -7 -406 l0 -398 140 0 140 0 -2 403 -3
402 -131 3 c-71 1 -133 -1 -137 -4z"/>
<path d="M1322 2043 c-14 -26 -25 -128 -18 -158 5 -18 13 -25 31 -25 28 0 34
22 38 130 2 60 0 65 -20 68 -13 2 -25 -4 -31 -15z"/>
<path d="M2393 2048 c-18 -24 -34 -130 -22 -145 29 -34 54 -6 65 75 8 65 -16
104 -43 70z"/>
<path d="M2561 2007 c-11 -15 -31 -103 -31 -142 0 -28 28 -41 47 -22 8 8 19
44 26 80 9 52 8 69 -2 81 -16 20 -25 20 -40 3z"/>
<path d="M1132 1998 c-18 -18 -16 -169 2 -194 12 -15 18 -17 33 -8 15 9 19 27
21 99 3 86 -5 115 -32 115 -7 0 -17 -5 -24 -12z"/>
<path d="M2720 1954 c-6 -14 -10 -35 -10 -47 -1 -12 -7 -51 -14 -86 -16 -71
-13 -91 14 -91 32 0 41 27 47 139 5 99 4 111 -11 111 -9 0 -21 -12 -26 -26z"/>
<path d="M940 1885 c-10 -12 -10 -30 -1 -88 20 -125 29 -147 55 -147 13 0 26
6 29 14 7 17 -24 205 -36 224 -11 16 -32 15 -47 -3z"/>
<path d="M2302 1792 c-21 -31 -49 -72 -61 -89 -26 -35 -22 -63 8 -63 35 0 131
130 131 179 0 15 -18 31 -35 31 -3 0 -22 -26 -43 -58z"/>
<path d="M1337 1793 c-14 -14 -6 -60 22 -119 31 -66 49 -80 77 -60 17 13 16
17 -10 77 -45 103 -66 126 -89 102z"/>
<path d="M2498 1773 c-9 -10 -26 -38 -38 -63 -13 -25 -36 -64 -52 -88 -33 -48
-33 -75 -1 -80 26 -4 68 49 116 146 24 48 29 66 21 79 -15 24 -28 26 -46 6z"/>
<path d="M1177 1698 c-25 -13 -21 -37 19 -117 29 -57 40 -71 59 -71 38 0 38
28 -1 111 -38 82 -50 93 -77 77z"/>
<path d="M2610 1603 c-44 -82 -47 -106 -13 -111 18 -3 29 7 53 44 54 86 63
144 21 144 -14 0 -31 -22 -61 -77z"/>
<path d="M2053 1645 c-38 -17 -53 -29 -53 -44 0 -29 31 -34 85 -14 56 21 75
44 56 67 -17 21 -25 20 -88 -9z"/>
<path d="M1023 1573 c-7 -2 -13 -12 -13 -20 0 -17 51 -115 78 -151 16 -20 19
-21 37 -8 19 14 19 15 -10 77 -31 64 -61 110 -73 108 -4 0 -13 -3 -19 -6z"/>
<path d="M1478 1569 c-10 -6 -18 -16 -18 -24 0 -38 180 -155 262 -170 30 -6
38 -3 46 12 15 28 3 40 -68 69 -56 23 -98 47 -185 109 -14 10 -25 11 -37 4z"/>
<path d="M2230 1481 c-67 -37 -90 -74 -55 -87 22 -9 94 21 135 55 29 25 33 32
24 48 -17 27 -33 25 -104 -16z"/>
<path d="M1318 1459 c-29 -16 -21 -42 30 -90 69 -67 116 -99 144 -99 21 0 38
16 38 35 0 2 -32 30 -71 62 -39 32 -83 68 -97 80 -20 16 -31 19 -44 12z"/>
<path d="M1850 1394 c-10 -11 -11 -20 -3 -32 8 -13 29 -18 100 -20 107 -3 146
8 141 41 -3 21 -8 22 -114 25 -92 2 -113 0 -124 -14z"/>
<path d="M2429 1377 c-24 -18 -65 -46 -91 -62 -55 -34 -62 -46 -43 -72 13 -17
15 -17 67 8 83 41 158 105 158 134 0 36 -37 33 -91 -8z"/>
<path d="M1154 1329 c-7 -13 75 -101 88 -93 17 11 7 41 -25 72 -35 34 -51 39
-63 21z"/>
<path d="M1651 1226 c-29 -34 27 -67 145 -86 73 -12 97 -3 92 34 -3 18 -18 24
-108 43 -58 12 -108 22 -111 22 -4 1 -12 -5 -18 -13z"/>
<path d="M2072 1215 c-71 -14 -96 -32 -86 -59 6 -16 16 -18 68 -13 34 3 79 11
101 19 32 11 40 18 40 38 0 21 -5 25 -30 27 -16 0 -59 -5 -93 -12z"/>
<path d="M1303 1199 c-14 -14 3 -29 95 -82 68 -40 82 -44 82 -24 0 12 -141
117 -158 117 -4 0 -13 -5 -19 -11z"/>
</g>
</svg>
