<svg width="50" height="50" viewBox="0 0 50 50" fill="none" xmlns="http://www.w3.org/2000/svg">
<circle cx="25" cy="25" r="25" fill="#FECBB7" fill-opacity="0.5"/>
<path d="M37.0334 23.7333V34.3333C37.0334 35.0667 36.7723 35.6944 36.25 36.2167C35.7278 36.7389 35.1 37 34.3667 37H15.7C14.9667 37 14.3389 36.7389 13.8167 36.2167C13.2945 35.6944 13.0334 35.0667 13.0334 34.3333V23.7333C12.5223 23.2667 12.1278 22.6667 11.85 21.9333C11.5723 21.2 11.5667 20.4 11.8334 19.5333L13.2334 15C13.4111 14.4222 13.7278 13.9444 14.1834 13.5667C14.6389 13.1889 15.1667 13 15.7667 13H34.3C34.9 13 35.4223 13.1833 35.8667 13.55C36.3111 13.9167 36.6334 14.4 36.8334 15L38.2334 19.5333C38.5 20.4 38.4945 21.1889 38.2167 21.9C37.9389 22.6111 37.5445 23.2222 37.0334 23.7333ZM27.9667 22.3333C28.5667 22.3333 29.0223 22.1278 29.3334 21.7167C29.6445 21.3056 29.7667 20.8444 29.7 20.3333L28.9667 15.6667H26.3667V20.6C26.3667 21.0667 26.5223 21.4722 26.8334 21.8167C27.1445 22.1611 27.5223 22.3333 27.9667 22.3333ZM21.9667 22.3333C22.4778 22.3333 22.8945 22.1611 23.2167 21.8167C23.5389 21.4722 23.7 21.0667 23.7 20.6V15.6667H21.1L20.3667 20.3333C20.2778 20.8667 20.3945 21.3333 20.7167 21.7333C21.0389 22.1333 21.4556 22.3333 21.9667 22.3333ZM16.0334 22.3333C16.4334 22.3333 16.7834 22.1889 17.0834 21.9C17.3834 21.6111 17.5667 21.2444 17.6334 20.8L18.3667 15.6667H15.7667L14.4334 20.1333C14.3 20.5778 14.3723 21.0556 14.65 21.5667C14.9278 22.0778 15.3889 22.3333 16.0334 22.3333ZM34.0334 22.3333C34.6778 22.3333 35.1445 22.0778 35.4334 21.5667C35.7223 21.0556 35.7889 20.5778 35.6334 20.1333L34.2334 15.6667H31.7L32.4334 20.8C32.5 21.2444 32.6834 21.6111 32.9834 21.9C33.2834 22.1889 33.6334 22.3333 34.0334 22.3333ZM15.7 34.3333H34.3667V24.9333C34.2556 24.9778 34.1834 25 34.15 25H34.0334C33.4334 25 32.9056 24.9 32.45 24.7C31.9945 24.5 31.5445 24.1778 31.1 23.7333C30.7 24.1333 30.2445 24.4444 29.7334 24.6667C29.2223 24.8889 28.6778 25 28.1 25C27.5 25 26.9389 24.8889 26.4167 24.6667C25.8945 24.4444 25.4334 24.1333 25.0334 23.7333C24.6556 24.1333 24.2167 24.4444 23.7167 24.6667C23.2167 24.8889 22.6778 25 22.1 25C21.4556 25 20.8723 24.8889 20.35 24.6667C19.8278 24.4444 19.3667 24.1333 18.9667 23.7333C18.5 24.2 18.0389 24.5278 17.5834 24.7167C17.1278 24.9056 16.6111 25 16.0334 25H15.8834C15.8278 25 15.7667 24.9778 15.7 24.9333V34.3333Z" fill="#FC6326"/>
</svg>
