<svg width="50" height="50" viewBox="0 0 50 50" fill="none" xmlns="http://www.w3.org/2000/svg">
<circle cx="25" cy="25" r="25" fill="#FECBB7" fill-opacity="0.5"/>
<path d="M18.3334 38.3333V26.1333C17.2 25.8222 16.25 25.2 15.4834 24.2666C14.7167 23.3333 14.3334 22.2444 14.3334 21V11.6666H17V21H18.3334V11.6666H21V21H22.3334V11.6666H25V21C25 22.2444 24.6167 23.3333 23.85 24.2666C23.0834 25.2 22.1334 25.8222 21 26.1333V38.3333H18.3334ZM31.6667 38.3333V27.6666H27.6667V18.3333C27.6667 16.4888 28.3167 14.9166 29.6167 13.6166C30.9167 12.3166 32.4889 11.6666 34.3334 11.6666V38.3333H31.6667Z" fill="#FC6326"/>
</svg>
