<svg width="50" height="50" viewBox="0 0 50 50" fill="none" xmlns="http://www.w3.org/2000/svg">
<circle cx="25" cy="25" r="25" fill="#FECBB7" fill-opacity="0.5"/>
<path d="M10.4 37V33.2667C10.4 32.5333 10.5889 31.8444 10.9667 31.2C11.3445 30.5556 11.8667 30.0667 12.5334 29.7333C13.6667 29.1556 14.9445 28.6667 16.3667 28.2667C17.7889 27.8667 19.3556 27.6667 21.0667 27.6667C22.7778 27.6667 24.3445 27.8667 25.7667 28.2667C27.1889 28.6667 28.4667 29.1556 29.6 29.7333C30.2667 30.0667 30.7889 30.5556 31.1667 31.2C31.5445 31.8444 31.7334 32.5333 31.7334 33.2667V37H10.4ZM13.0667 34.3333H29.0667V33.2667C29.0667 33.0222 29.0056 32.8 28.8834 32.6C28.7611 32.4 28.6 32.2444 28.4 32.1333C27.6 31.7333 26.5722 31.3333 25.3167 30.9333C24.0611 30.5333 22.6445 30.3333 21.0667 30.3333C19.4889 30.3333 18.0722 30.5333 16.8167 30.9333C15.5611 31.3333 14.5334 31.7333 13.7334 32.1333C13.5334 32.2444 13.3722 32.4 13.25 32.6C13.1278 32.8 13.0667 33.0222 13.0667 33.2667V34.3333ZM21.0667 26.3333C19.6 26.3333 18.3445 25.8111 17.3 24.7667C16.2556 23.7222 15.7334 22.4667 15.7334 21H15.4C15.2 21 15.0389 20.9389 14.9167 20.8167C14.7945 20.6944 14.7334 20.5333 14.7334 20.3333C14.7334 20.1333 14.7945 19.9722 14.9167 19.85C15.0389 19.7278 15.2 19.6667 15.4 19.6667H15.7334C15.7334 18.6667 15.9778 17.7667 16.4667 16.9667C16.9556 16.1667 17.6 15.5333 18.4 15.0667V16.3333C18.4 16.5333 18.4611 16.6944 18.5834 16.8167C18.7056 16.9389 18.8667 17 19.0667 17C19.2667 17 19.4278 16.9389 19.55 16.8167C19.6722 16.6944 19.7334 16.5333 19.7334 16.3333V14.5333C19.9334 14.4667 20.1445 14.4167 20.3667 14.3833C20.5889 14.35 20.8222 14.3333 21.0667 14.3333C21.3111 14.3333 21.5445 14.35 21.7667 14.3833C21.9889 14.4167 22.2 14.4667 22.4 14.5333V16.3333C22.4 16.5333 22.4611 16.6944 22.5834 16.8167C22.7056 16.9389 22.8667 17 23.0667 17C23.2667 17 23.4278 16.9389 23.55 16.8167C23.6722 16.6944 23.7334 16.5333 23.7334 16.3333V15.0667C24.5334 15.5333 25.1778 16.1667 25.6667 16.9667C26.1556 17.7667 26.4 18.6667 26.4 19.6667H26.7334C26.9334 19.6667 27.0945 19.7278 27.2167 19.85C27.3389 19.9722 27.4 20.1333 27.4 20.3333C27.4 20.5333 27.3389 20.6944 27.2167 20.8167C27.0945 20.9389 26.9334 21 26.7334 21H26.4C26.4 22.4667 25.8778 23.7222 24.8334 24.7667C23.7889 25.8111 22.5334 26.3333 21.0667 26.3333ZM21.0667 23.6667C21.8 23.6667 22.4278 23.4056 22.95 22.8833C23.4722 22.3611 23.7334 21.7333 23.7334 21H18.4C18.4 21.7333 18.6611 22.3611 19.1834 22.8833C19.7056 23.4056 20.3334 23.6667 21.0667 23.6667ZM31.0667 29L30.8667 28C30.7334 27.9556 30.6056 27.9056 30.4834 27.85C30.3611 27.7944 30.2445 27.7111 30.1334 27.6L29.2 27.9333L28.5334 26.7333L29.2667 26.0667V25.2667L28.5334 24.6L29.2 23.4L30.1334 23.7333C30.2222 23.6444 30.3334 23.5667 30.4667 23.5C30.6 23.4333 30.7334 23.3778 30.8667 23.3333L31.0667 22.3333H32.4L32.6 23.3333C32.7334 23.3778 32.8667 23.4333 33 23.5C33.1334 23.5667 33.2445 23.6444 33.3334 23.7333L34.2667 23.4L34.9334 24.6L34.2 25.2667V26.0667L34.9334 26.7333L34.2667 27.9333L33.3334 27.6C33.2222 27.7111 33.1056 27.7944 32.9834 27.85C32.8611 27.9056 32.7334 27.9556 32.6 28L32.4 29H31.0667ZM31.7334 26.6667C32 26.6667 32.2334 26.5667 32.4334 26.3667C32.6334 26.1667 32.7334 25.9333 32.7334 25.6667C32.7334 25.4 32.6334 25.1667 32.4334 24.9667C32.2334 24.7667 32 24.6667 31.7334 24.6667C31.4667 24.6667 31.2334 24.7667 31.0334 24.9667C30.8334 25.1667 30.7334 25.4 30.7334 25.6667C30.7334 25.9333 30.8334 26.1667 31.0334 26.3667C31.2334 26.5667 31.4667 26.6667 31.7334 26.6667ZM34.1334 22.3333L33.8667 20.9333C33.6667 20.8667 33.4834 20.7833 33.3167 20.6833C33.15 20.5833 33 20.4667 32.8667 20.3333L31.4667 20.8L30.5334 19.2L31.6667 18.2C31.6222 18.0889 31.6 18 31.6 17.9333V17.4C31.6 17.3333 31.6222 17.2444 31.6667 17.1333L30.5334 16.1333L31.4667 14.5333L32.8667 15C33 14.8667 33.15 14.75 33.3167 14.65C33.4834 14.55 33.6667 14.4667 33.8667 14.4L34.1334 13H36L36.2667 14.4C36.4667 14.4667 36.65 14.55 36.8167 14.65C36.9834 14.75 37.1334 14.8667 37.2667 15L38.6667 14.5333L39.6 16.1333L38.4667 17.1333C38.5111 17.2444 38.5334 17.3333 38.5334 17.4V17.9333C38.5334 18 38.5111 18.0889 38.4667 18.2L39.6 19.2L38.6667 20.8L37.2667 20.3333C37.1334 20.4667 36.9834 20.5833 36.8167 20.6833C36.65 20.7833 36.4667 20.8667 36.2667 20.9333L36 22.3333H34.1334ZM35.0667 19.3333C35.5334 19.3333 35.9278 19.1722 36.25 18.85C36.5722 18.5278 36.7334 18.1333 36.7334 17.6667C36.7334 17.2 36.5722 16.8056 36.25 16.4833C35.9278 16.1611 35.5334 16 35.0667 16C34.6 16 34.2056 16.1611 33.8834 16.4833C33.5611 16.8056 33.4 17.2 33.4 17.6667C33.4 18.1333 33.5611 18.5278 33.8834 18.85C34.2056 19.1722 34.6 19.3333 35.0667 19.3333Z" fill="#FC6326"/>
</svg>
