<svg width="48" height="49" viewBox="0 0 48 49" fill="none" xmlns="http://www.w3.org/2000/svg">
<g clip-path="url(#clip0_70_2001)">
<path d="M6 45V5L9 8L12 5L15 8L18 5L21 8L24 5L27 8L30 5L33 8L36 5L39 8L42 5V45L39 42L36 45L33 42L30 45L27 42L24 45L21 42L18 45L15 42L12 45L9 42L6 45ZM12 35H36V31H12V35ZM12 27H36V23H12V27ZM12 19H36V15H12V19ZM10 39.2H38V10.8H10V39.2Z" fill="#FECBB7"/>
</g>
<defs>
<clipPath id="clip0_70_2001">
<rect y="0.5" width="48" height="48" rx="8" fill="white"/>
</clipPath>
</defs>
</svg>
