<svg width="48" height="49" viewBox="0 0 48 49" fill="none" xmlns="http://www.w3.org/2000/svg">
<g clip-path="url(#clip0_70_2005)">
<path d="M34 45C31.2333 45 28.875 44.025 26.925 42.075C24.975 40.125 24 37.7667 24 35C24 32.2333 24.975 29.875 26.925 27.925C28.875 25.975 31.2333 25 34 25C36.7667 25 39.125 25.975 41.075 27.925C43.025 29.875 44 32.2333 44 35C44 37.7667 43.025 40.125 41.075 42.075C39.125 44.025 36.7667 45 34 45ZM37.35 39.75L38.75 38.35L35 34.6V29H33V35.4L37.35 39.75ZM10 43C8.9 43 7.95833 42.6083 7.175 41.825C6.39167 41.0417 6 40.1 6 39V11C6 9.9 6.39167 8.95833 7.175 8.175C7.95833 7.39167 8.9 7 10 7H18.35C18.7167 5.83333 19.4333 4.875 20.5 4.125C21.5667 3.375 22.7333 3 24 3C25.3333 3 26.525 3.375 27.575 4.125C28.625 4.875 29.3333 5.83333 29.7 7H38C39.1 7 40.0417 7.39167 40.825 8.175C41.6083 8.95833 42 9.9 42 11V23.5C41.4 23.0667 40.7667 22.7 40.1 22.4C39.4333 22.1 38.7333 21.8333 38 21.6V11H34V17H14V11H10V39H20.6C20.8333 39.7333 21.1 40.4333 21.4 41.1C21.7 41.7667 22.0667 42.4 22.5 43H10ZM24 11C24.5667 11 25.0417 10.8083 25.425 10.425C25.8083 10.0417 26 9.56667 26 9C26 8.43333 25.8083 7.95833 25.425 7.575C25.0417 7.19167 24.5667 7 24 7C23.4333 7 22.9583 7.19167 22.575 7.575C22.1917 7.95833 22 8.43333 22 9C22 9.56667 22.1917 10.0417 22.575 10.425C22.9583 10.8083 23.4333 11 24 11Z" fill="#FECBB7"/>
</g>
<defs>
<clipPath id="clip0_70_2005">
<rect y="0.5" width="48" height="48" rx="8" fill="white"/>
</clipPath>
</defs>
</svg>
