<svg width="48" height="48" viewBox="0 0 48 48" fill="none" xmlns="http://www.w3.org/2000/svg">
<g clip-path="url(#clip0_70_1930)">
<path d="M28.7001 17.1C28.3001 16.1 27.7084 15.3167 26.9251 14.75C26.1417 14.1833 25.2001 13.9 24.1 13.9C23.5001 13.9 22.9167 13.9833 22.35 14.15C21.7834 14.3167 21.2667 14.6333 20.8001 15.1L17.9001 12.2C18.3667 11.7333 19 11.3083 19.8001 10.925C20.6 10.5417 21.3334 10.3 22 10.2V6.00001H26.0001V10.1C27.5001 10.4 28.8167 11.0083 29.9501 11.925C31.0834 12.8417 31.9334 14.0333 32.5001 15.5L28.7001 17.1ZM39.6001 45.2L30.4001 36C29.9001 36.5 29.2167 36.9083 28.3501 37.225C27.4834 37.5417 26.7001 37.7333 26.0001 37.8V42H22V37.7C20.1334 37.2333 18.5751 36.3833 17.3251 35.15C16.0751 33.9167 15.1667 32.3667 14.6 30.5L18.6 28.9C19 30.3 19.6751 31.5 20.625 32.5C21.5751 33.5 22.8334 34 24.4001 34C25.0001 34 25.5501 33.925 26.0501 33.775C26.5501 33.625 27.0334 33.4 27.5001 33.1L2.80005 8.40001L5.60005 5.60001L42.4001 42.4L39.6001 45.2Z" fill="#FECBB7"/>
</g>
<defs>
<clipPath id="clip0_70_1930">
<rect width="48" height="48" rx="8" fill="white"/>
</clipPath>
</defs>
</svg>
