<svg width="48" height="49" viewBox="0 0 48 49" fill="none" xmlns="http://www.w3.org/2000/svg">
<g clip-path="url(#clip0_70_1997)">
<path d="M12 29H28V25H12V29ZM12 23H36V19H12V23ZM12 17H36V13H12V17ZM4 45V9C4 7.9 4.39167 6.95833 5.175 6.175C5.95833 5.39167 6.9 5 8 5H40C41.1 5 42.0417 5.39167 42.825 6.175C43.6083 6.95833 44 7.9 44 9V33C44 34.1 43.6083 35.0417 42.825 35.825C42.0417 36.6083 41.1 37 40 37H12L4 45ZM10.3 33H40V9H8V35.25L10.3 33Z" fill="#FECBB7"/>
</g>
<defs>
<clipPath id="clip0_70_1997">
<rect y="0.5" width="48" height="48" rx="8" fill="white"/>
</clipPath>
</defs>
</svg>
