<svg width="21" height="14" viewBox="0 0 21 14" fill="none" xmlns="http://www.w3.org/2000/svg">
<g clip-path="url(#clip0_306_975)">
<path d="M0 0H21V14H0V0Z" fill="black"/>
<path d="M0 2.33331H21V5.83331H0V2.33331ZM0 9.33331H21V14H0V9.33331Z" fill="#FCDC04"/>
<path d="M0 4.66669H21V7.00002H0V4.66669ZM0 11.6667H21V14H0V11.6667Z" fill="#D90000"/>
<path d="M10.5 9.18169C11.7049 9.18169 12.6817 8.20493 12.6817 7.00003C12.6817 5.79512 11.7049 4.81836 10.5 4.81836C9.29512 4.81836 8.31836 5.79512 8.31836 7.00003C8.31836 8.20493 9.29512 9.18169 10.5 9.18169Z" fill="white"/>
<path d="M10.1159 5.32907L9.97437 5.06843C10.029 5.01383 10.1208 4.97162 10.2673 4.97162C10.2673 4.98155 10.2524 5.25709 10.2524 5.25709L10.1159 5.32907Z" fill="#D90000" stroke="black" stroke-width="0.0316667"/>
<path d="M10.2527 5.25955L10.2725 4.9716C10.2725 4.9716 10.5655 4.95424 10.7243 5.14536C10.7268 5.14288 10.5679 5.36876 10.5679 5.36876L10.2527 5.25955Z" fill="#FCDC04" stroke="black" stroke-width="0.0316667"/>
<path d="M10.5723 5.36628L10.7162 5.14288C10.813 5.24466 10.8527 5.31664 10.8676 5.42587C10.8701 5.42835 10.6393 5.48295 10.6393 5.48047C10.6393 5.47799 10.5747 5.36876 10.5723 5.36628Z" fill="#D90000" stroke="black" stroke-width="0.0316667"/>
<path d="M10.1875 9.055C10.1875 9.055 10.4581 8.74471 10.9843 8.81174C10.9049 8.68266 10.6492 8.69755 10.6492 8.69755C10.6492 8.69755 10.5698 8.09436 10.6318 8.06457C10.6939 8.03477 10.957 8.06705 10.957 8.06705C10.9917 8.06705 11.0513 7.97272 11.0042 7.91315C10.957 7.85356 10.818 7.6252 10.8751 7.58051C10.9322 7.53584 11.2425 7.60534 11.2425 7.60534L10.3662 6.48335C10.3662 6.48335 10.2769 6.06136 10.4556 5.85781C10.6715 5.67908 10.6492 5.48546 10.6418 5.48794C10.612 5.29184 10.3141 5.15033 10.113 5.33156C9.99387 5.47553 10.0733 5.58475 10.0733 5.58475C10.0733 5.58475 9.76054 5.66915 9.74813 5.72375C9.73571 5.77837 10.1006 5.71384 10.1006 5.71384L10.0659 5.96455C10.0659 5.96455 9.35592 6.60993 9.89954 7.16845C9.90451 7.16597 9.91692 7.14363 9.91692 7.14363C9.91692 7.14363 10.1081 7.37946 10.3091 7.43158C10.4978 7.6252 10.4804 7.59541 10.4804 7.59541C10.4804 7.59541 10.5176 7.90074 10.4829 7.9603C10.4357 7.94541 9.95416 7.92805 9.88216 7.95534C9.81763 7.9752 9.5694 7.96279 9.63145 8.36741C9.67861 8.25819 9.72082 8.16138 9.72082 8.16138C9.72082 8.16138 9.71337 8.30783 9.77296 8.35996C9.76302 8.20605 9.83004 8.10181 9.83004 8.10181C9.83004 8.10181 9.84246 8.2706 9.87968 8.29541C9.91692 8.32024 9.91692 8.02236 10.123 8.04718C10.329 8.07201 10.4779 8.06457 10.4779 8.06457C10.4779 8.06457 10.5474 8.6479 10.5251 8.70252C10.3761 8.66776 10.0212 8.71742 9.99884 8.80678C10.2073 8.79436 10.3042 8.81917 10.3042 8.81917C10.3042 8.81917 10.1354 8.96812 10.1875 9.055Z" fill="black" stroke="black" stroke-width="0.0316667"/>
<path d="M10.2712 5.87207C10.2712 5.87207 9.75457 6.44145 9.97744 6.87716C9.9893 6.8164 9.98413 6.77823 9.99158 6.78071C9.97917 6.77326 10.0556 6.83313 10.0498 6.82148C10.0515 6.78998 10.0265 6.72247 10.0265 6.72247C10.0498 6.72829 10.0731 6.73412 10.0964 6.73994C10.0828 6.7147 10.0692 6.68947 10.0556 6.66422C10.0887 6.66811 10.1217 6.67198 10.1547 6.67586C10.1547 6.67586 10.1197 6.58267 10.1314 6.58267C10.143 6.58267 10.2129 6.58849 10.2129 6.58849C10.066 6.32485 10.2046 6.10591 10.2712 5.87207Z" fill="#9CA69C" stroke="#9CA69C" stroke-width="0.0316667"/>
<path d="M10.451 5.38367C10.451 5.38367 10.4783 5.57977 10.3716 5.63686C10.3542 5.64927 10.2872 5.67162 10.2971 5.71134C10.3096 5.76595 10.3393 5.75602 10.3815 5.74608C10.4932 5.72622 10.6223 5.48793 10.451 5.38367Z" fill="#9CA69C" stroke="#9CA69C" stroke-width="0.0316667"/>
<path d="M10.2202 5.59529C10.2434 5.59529 10.2622 5.57649 10.2622 5.55329C10.2622 5.5301 10.2434 5.51129 10.2202 5.51129C10.197 5.51129 10.1782 5.5301 10.1782 5.55329C10.1782 5.57649 10.197 5.59529 10.2202 5.59529Z" fill="white"/>
<path d="M10.0935 5.71631C10.0662 5.73865 9.92227 5.8876 10.0638 5.94221C10.2102 5.90248 10.1705 5.87519 10.2028 5.84291C10.2036 5.7759 10.13 5.75852 10.0935 5.71631Z" fill="#D90000" stroke="black" stroke-width="0.0316667"/>
<path d="M10.4064 7.12378C10.399 7.15606 10.3667 7.27519 10.4114 7.36704C10.5355 7.31492 10.5926 7.3298 10.6348 7.35711C10.533 7.27519 10.4933 7.24043 10.4064 7.12378Z" fill="#9CA69C" stroke="#9CA69C" stroke-width="0.0316667"/>
<path d="M10.6194 7.68726L10.6268 7.96528C10.6268 7.96528 10.7236 7.98266 10.7683 7.96528C10.813 7.9479 10.7658 7.77165 10.6194 7.68726Z" fill="white" stroke="white" stroke-width="0.0316667"/>
<path d="M11.3222 7.72198C11.3222 7.72198 11.1435 7.29006 10.6867 7.18084C10.23 7.07161 10.2895 6.58509 10.3268 6.5553C10.3466 6.51309 10.3615 6.44856 10.4931 6.51063C10.6247 6.57268 11.2303 6.87799 11.3172 6.89289C11.4041 6.90779 11.3296 7.73191 11.3222 7.72198Z" fill="#9CA69C" stroke="black" stroke-width="0.0316667"/>
<path d="M10.8878 7.17836C10.8803 7.18332 11.4984 7.54324 11.3122 7.85354C11.4885 7.73686 11.4314 7.53333 11.4314 7.53333C11.4314 7.53333 11.5754 7.90816 11.2254 8.09185C11.2626 8.12413 11.2874 8.11666 11.2874 8.11666L11.2278 8.17625C11.2278 8.17625 11.2005 8.22092 11.4364 8.10673C11.3718 8.15887 11.3669 8.19609 11.3669 8.19609C11.3669 8.19609 11.3842 8.24575 11.5381 8.11169C11.414 8.24575 11.3867 8.31525 11.3867 8.31276C11.7218 8.28297 12.4516 7.19326 11.1559 6.87054C11.2254 6.94255 11.2154 6.93261 11.2154 6.93261L10.8878 7.17836Z" fill="#D90000" stroke="black" stroke-width="0.0316667"/>
<path d="M10.9153 7.07162C10.9997 7.13119 11.0295 7.15105 11.0394 7.18085C10.9625 7.16349 10.893 7.16843 10.893 7.16843C10.893 7.16843 10.7267 7.00957 10.6969 6.99716C10.6745 6.99716 10.5455 6.91524 10.5455 6.91524C10.4809 6.88297 10.4214 6.65957 10.6596 6.7241C10.9054 6.84076 10.9401 6.85071 10.9401 6.85071C11.0378 6.88132 11.1354 6.91194 11.233 6.94255C11.2893 7.00544 11.3456 7.06832 11.4018 7.13121C11.4018 7.13121 11.1015 6.98226 11.0643 6.97978C11.1462 7.04679 11.1933 7.13864 11.1933 7.13864C11.0982 7.11133 11.0154 7.08652 10.9153 7.07162Z" fill="white" stroke="black" stroke-width="0.0316667"/>
<path d="M9.74609 5.73864C9.74609 5.73864 10.034 5.66914 10.0688 5.67907L9.74609 5.73864Z" fill="black"/>
<path d="M9.74609 5.73864C9.74609 5.73864 10.034 5.66914 10.0688 5.67907" stroke="white" stroke-width="0.0316667"/>
</g>
<defs>
<clipPath id="clip0_306_975">
<rect width="21" height="14" fill="white"/>
</clipPath>
</defs>
</svg>
