<svg width="21" height="14" viewBox="0 0 21 14" fill="none" xmlns="http://www.w3.org/2000/svg">
<g clip-path="url(#clip0_306_999)">
<path d="M26.6 0H0V14H26.6V0Z" fill="#B22234"/>
<path d="M0 1.61536H26.6H0ZM26.6 3.7692H0H26.6ZM0 5.92305H26.6H0ZM26.6 8.07689H0H26.6ZM0 10.2307H26.6H0ZM26.6 12.3846H0H26.6Z" fill="black"/>
<path d="M0 1.61536H26.6M26.6 3.7692H0M0 5.92305H26.6M26.6 8.07689H0M0 10.2307H26.6M26.6 12.3846H0" stroke="white" stroke-width="1.27885"/>
<path d="M10.64 0H0V7.53846H10.64V0Z" fill="#3C3B6E"/>
<path d="M1.18849 0.323303L1.44169 1.10257L0.778809 0.620957H1.59818L0.935295 1.10257L1.18849 0.323303Z" fill="white"/>
<path d="M1.18849 1.83093L1.44169 2.6102L0.778809 2.12859H1.59818L0.935295 2.6102L1.18849 1.83093Z" fill="white"/>
<path d="M1.18849 3.33862L1.44169 4.11789L0.778809 3.63628H1.59818L0.935295 4.11789L1.18849 3.33862Z" fill="white"/>
<path d="M1.18849 4.84631L1.44169 5.62558L0.778809 5.14397H1.59818L0.935295 5.62558L1.18849 4.84631Z" fill="white"/>
<path d="M1.18825 6.354L1.44145 7.13327L0.778564 6.65166H1.59794L0.935051 7.13327L1.18825 6.354Z" fill="white"/>
<path d="M2.07497 1.0769L2.32817 1.85617L1.66528 1.37456H2.48465L1.82177 1.85617L2.07497 1.0769Z" fill="white"/>
<path d="M2.07497 2.58459L2.32817 3.36386L1.66528 2.88225H2.48465L1.82177 3.36386L2.07497 2.58459Z" fill="white"/>
<path d="M2.07497 4.09229L2.32817 4.87155L1.66528 4.38994H2.48465L1.82177 4.87155L2.07497 4.09229Z" fill="white"/>
<path d="M2.07497 5.59998L2.32817 6.37924L1.66528 5.89763H2.48465L1.82177 6.37924L2.07497 5.59998Z" fill="white"/>
<path d="M2.9634 0.323059L3.2166 1.10233L2.55371 0.620713H3.37308L2.7102 1.10233L2.9634 0.323059Z" fill="white"/>
<path d="M2.9634 1.83075L3.2166 2.61002L2.55371 2.1284H3.37308L2.7102 2.61002L2.9634 1.83075Z" fill="white"/>
<path d="M2.9634 3.3385L3.2166 4.11777L2.55371 3.63616H3.37308L2.7102 4.11777L2.9634 3.3385Z" fill="white"/>
<path d="M2.9634 4.84613L3.2166 5.6254L2.55371 5.14378H3.37308L2.7102 5.6254L2.9634 4.84613Z" fill="white"/>
<path d="M2.9634 6.35382L3.2166 7.13309L2.55371 6.65148H3.37308L2.7102 7.13309L2.9634 6.35382Z" fill="white"/>
<path d="M3.84987 1.0769L4.10307 1.85617L3.44019 1.37456H4.25956L3.59667 1.85617L3.84987 1.0769Z" fill="white"/>
<path d="M3.84963 2.58459L4.10283 3.36386L3.43994 2.88225H4.25931L3.59643 3.36386L3.84963 2.58459Z" fill="white"/>
<path d="M3.84963 4.09229L4.10283 4.87155L3.43994 4.38994H4.25931L3.59643 4.87155L3.84963 4.09229Z" fill="white"/>
<path d="M3.84963 5.59998L4.10283 6.37924L3.43994 5.89763H4.25931L3.59643 6.37924L3.84963 5.59998Z" fill="white"/>
<path d="M4.73757 0.323181L4.99077 1.10245L4.32788 0.620835H5.14725L4.48437 1.10245L4.73757 0.323181Z" fill="white"/>
<path d="M4.73757 1.83087L4.99077 2.61014L4.32788 2.12853H5.14725L4.48437 2.61014L4.73757 1.83087Z" fill="white"/>
<path d="M4.73757 3.33856L4.99077 4.11783L4.32788 3.63622H5.14725L4.48437 4.11783L4.73757 3.33856Z" fill="white"/>
<path d="M4.73757 4.84619L4.99077 5.62546L4.32788 5.14385H5.14725L4.48437 5.62546L4.73757 4.84619Z" fill="white"/>
<path d="M4.73757 6.35394L4.99077 7.13321L4.32788 6.6516H5.14725L4.48437 7.13321L4.73757 6.35394Z" fill="white"/>
<path d="M5.62355 1.0769L5.87675 1.85617L5.21387 1.37456H6.03324L5.37035 1.85617L5.62355 1.0769Z" fill="white"/>
<path d="M5.62331 2.58459L5.87651 3.36386L5.21362 2.88225H6.03299L5.37011 3.36386L5.62331 2.58459Z" fill="white"/>
<path d="M5.62331 4.09229L5.87651 4.87155L5.21362 4.38994H6.03299L5.37011 4.87155L5.62331 4.09229Z" fill="white"/>
<path d="M5.62331 5.59998L5.87651 6.37924L5.21362 5.89763H6.03299L5.37011 6.37924L5.62331 5.59998Z" fill="white"/>
<path d="M6.511 0.323059L6.7642 1.10233L6.10132 0.620713H6.92069L6.2578 1.10233L6.511 0.323059Z" fill="white"/>
<path d="M6.511 1.83075L6.7642 2.61002L6.10132 2.1284H6.92069L6.2578 2.61002L6.511 1.83075Z" fill="white"/>
<path d="M6.511 3.3385L6.7642 4.11777L6.10132 3.63616H6.92069L6.2578 4.11777L6.511 3.3385Z" fill="white"/>
<path d="M6.511 4.84613L6.7642 5.6254L6.10132 5.14378H6.92069L6.2578 5.6254L6.511 4.84613Z" fill="white"/>
<path d="M6.511 6.35382L6.7642 7.13309L6.10132 6.65147H6.92069L6.2578 7.13309L6.511 6.35382Z" fill="white"/>
<path d="M7.39748 1.0769L7.65068 1.85617L6.98779 1.37456H7.80716L7.14428 1.85617L7.39748 1.0769Z" fill="white"/>
<path d="M7.39723 2.58459L7.65043 3.36386L6.98755 2.88225H7.80692L7.14403 3.36386L7.39723 2.58459Z" fill="white"/>
<path d="M7.39723 4.09229L7.65043 4.87155L6.98755 4.38994H7.80692L7.14403 4.87155L7.39723 4.09229Z" fill="white"/>
<path d="M7.39723 5.59998L7.65043 6.37924L6.98755 5.89763H7.80692L7.14403 6.37924L7.39723 5.59998Z" fill="white"/>
<path d="M8.2842 0.32312L8.5374 1.10239L7.87451 0.620774H8.69388L8.031 1.10239L8.2842 0.32312Z" fill="white"/>
<path d="M8.2842 1.83081L8.5374 2.61008L7.87451 2.12846H8.69388L8.031 2.61008L8.2842 1.83081Z" fill="white"/>
<path d="M8.2842 3.3385L8.5374 4.11777L7.87451 3.63616H8.69388L8.031 4.11777L8.2842 3.3385Z" fill="white"/>
<path d="M8.2842 4.84613L8.5374 5.6254L7.87451 5.14378H8.69388L8.031 5.6254L8.2842 4.84613Z" fill="white"/>
<path d="M8.2842 6.35388L8.5374 7.13315L7.87451 6.65154H8.69388L8.031 7.13315L8.2842 6.35388Z" fill="white"/>
<path d="M9.16994 1.0769L9.42314 1.85617L8.76025 1.37456H9.57963L8.91674 1.85617L9.16994 1.0769Z" fill="white"/>
<path d="M9.16994 2.58459L9.42314 3.36386L8.76025 2.88225H9.57963L8.91674 3.36386L9.16994 2.58459Z" fill="white"/>
<path d="M9.16994 4.09229L9.42314 4.87155L8.76025 4.38994H9.57963L8.91674 4.87155L9.16994 4.09229Z" fill="white"/>
<path d="M9.16994 5.59998L9.42314 6.37924L8.76025 5.89763H9.57963L8.91674 6.37924L9.16994 5.59998Z" fill="white"/>
<path d="M10.0559 0.32312L10.3091 1.10239L9.64624 0.620774H10.4656L9.80273 1.10239L10.0559 0.32312Z" fill="white"/>
<path d="M10.0559 1.83081L10.3091 2.61008L9.64624 2.12846H10.4656L9.80273 2.61008L10.0559 1.83081Z" fill="white"/>
<path d="M10.0559 3.3385L10.3091 4.11777L9.64624 3.63616H10.4656L9.80273 4.11777L10.0559 3.3385Z" fill="white"/>
<path d="M10.0559 4.84613L10.3091 5.6254L9.64624 5.14378H10.4656L9.80273 5.6254L10.0559 4.84613Z" fill="white"/>
<path d="M10.0559 6.35382L10.3091 7.13309L9.64624 6.65148H10.4656L9.80273 7.13309L10.0559 6.35382Z" fill="white"/>
</g>
<defs>
<clipPath id="clip0_306_999">
<rect width="21" height="14" fill="white"/>
</clipPath>
</defs>
</svg>
