<svg width="21" height="14" viewBox="0 0 21 14" fill="none" xmlns="http://www.w3.org/2000/svg">
<g clip-path="url(#clip0_306_934)">
<path d="M0 0H21V14H0V0Z" fill="#3E5EB9"/>
<path d="M0 2.625H21V11.375H0V2.625Z" fill="#FFD900"/>
<path d="M0 3.5H21V10.5H0V3.5Z" fill="#B10C0C"/>
<path d="M17.2489 5.39972L16.3989 5.6997L17.2489 5.99969L18.0989 5.6997L17.2489 5.39972Z" fill="white" stroke="black" stroke-width="0.04788"/>
<path d="M16.6897 5.59991H4.40754C4.3475 5.59991 4.29883 5.64468 4.29883 5.69991C4.29883 5.75514 4.3475 5.7999 4.40754 5.7999H16.6897C16.7497 5.7999 16.7984 5.75514 16.7984 5.69991C16.7984 5.64468 16.7497 5.59991 16.6897 5.59991Z" fill="#FFD900" stroke="black" stroke-width="0.04788"/>
<path d="M16.4993 5.79978C16.5492 5.79978 16.5993 5.74977 16.5993 5.69979C16.5993 5.64981 16.5493 5.59979 16.4993 5.59979M16.3992 5.79978C16.4491 5.79978 16.4992 5.74977 16.4992 5.69979C16.4992 5.64981 16.4492 5.59979 16.3992 5.59979M16.2991 5.79978C16.349 5.79978 16.3991 5.74977 16.3991 5.69979C16.3991 5.64981 16.3491 5.59979 16.2991 5.59979" fill="#FFD900"/>
<path d="M16.4993 5.79978C16.5492 5.79978 16.5993 5.74977 16.5993 5.69979C16.5993 5.64981 16.5493 5.59979 16.4993 5.59979M16.3992 5.79978C16.4491 5.79978 16.4992 5.74977 16.4992 5.69979C16.4992 5.64981 16.4492 5.59979 16.3992 5.59979M16.2991 5.79978C16.349 5.79978 16.3991 5.74977 16.3991 5.69979C16.3991 5.64981 16.3491 5.59979 16.2991 5.59979" stroke="black" stroke-width="0.04788"/>
<path d="M16.4342 6.00006L15.5842 6.30005L16.4342 6.60003L17.2842 6.30005L16.4342 6.00006Z" fill="white" stroke="black" stroke-width="0.04788"/>
<path d="M15.875 6.20026H3.59284C3.5328 6.20026 3.48413 6.24503 3.48413 6.30025C3.48413 6.35548 3.5328 6.40025 3.59284 6.40025H15.875C15.935 6.40025 15.9837 6.35548 15.9837 6.30025C15.9837 6.24503 15.935 6.20026 15.875 6.20026Z" fill="#FFD900" stroke="black" stroke-width="0.04788"/>
<path d="M15.6846 6.40012C15.7345 6.40012 15.7846 6.35011 15.7846 6.30013C15.7846 6.25015 15.7346 6.20013 15.6846 6.20013M15.5845 6.40012C15.6344 6.40012 15.6845 6.35011 15.6845 6.30013C15.6845 6.25015 15.6345 6.20013 15.5845 6.20013M15.4844 6.40012C15.5343 6.40012 15.5844 6.35011 15.5844 6.30013C15.5844 6.25015 15.5344 6.20013 15.4844 6.20013" fill="#FFD900"/>
<path d="M15.6846 6.40012C15.7345 6.40012 15.7846 6.35011 15.7846 6.30013C15.7846 6.25015 15.7346 6.20013 15.6846 6.20013M15.5845 6.40012C15.6344 6.40012 15.6845 6.35011 15.6845 6.30013C15.6845 6.25015 15.6345 6.20013 15.5845 6.20013M15.4844 6.40012C15.5343 6.40012 15.5844 6.35011 15.5844 6.30013C15.5844 6.25015 15.5344 6.20013 15.4844 6.20013" stroke="black" stroke-width="0.04788"/>
<path d="M18.9442 6.85016H2.24037C2.15872 6.85016 2.09253 6.91731 2.09253 7.00015C2.09253 7.08299 2.15872 7.15014 2.24037 7.15014H18.9442C19.0258 7.15014 19.092 7.08299 19.092 7.00015C19.092 6.91731 19.0258 6.85016 18.9442 6.85016Z" fill="#FFD900" stroke="black" stroke-width="0.0513"/>
<path d="M15.4997 7.00003C14.4997 7.99993 13.1664 9.99999 10.4996 9.99999C8.16628 9.99999 6.49981 8.00005 5.49951 7.00003C6.49951 5.99994 8.16605 4.00006 10.4996 4.00006C13.1661 4.00006 14.4994 6.00003 15.4997 7.00003Z" fill="white" stroke="black" stroke-width="0.04788"/>
<path d="M10.151 5.0435C10.4171 5.34271 10.1949 5.46336 10.4765 5.48299C10.7735 5.5048 10.6051 5.79918 10.8549 5.80942C11.0296 5.81705 10.8375 6.51469 11.0056 6.74492C11.1769 6.98493 11.3203 6.81525 11.3233 6.98862C11.3263 7.16796 10.8572 7.14987 10.849 7.70227C10.8352 8.02063 10.4531 8.041 10.4349 8.24586C10.4122 8.43853 11.1877 8.54668 11.1773 8.71916C11.1667 8.89112 10.34 8.8642 10.304 9.06031C10.2856 9.23648 11.4397 9.38084 11.5325 9.89028C11.3603 9.94658 10.8703 9.9996 10.5 9.99988C8.16701 10.0016 6.50019 7.99974 5.50024 6.99982C6.50024 5.99975 8.16682 3.99976 10.5003 3.99976C10.5003 3.99976 9.80774 4.63263 10.1514 5.04329L10.151 5.0435Z" fill="black"/>
<path d="M7.48633 6.73322V5.93323V6.73322ZM7.97108 5.93323V6.73322V5.93323ZM8.45618 5.93323V6.73322V5.93323Z" fill="black"/>
<path d="M7.48633 6.73322V5.93323M7.97108 5.93323V6.73322M8.45618 5.93323V6.73322" stroke="white" stroke-width="0.329032"/>
<path d="M7.48633 8.06672V7.26672V8.06672ZM7.97108 7.26672V8.06672V7.26672ZM8.45618 7.26672V8.06672V7.26672Z" fill="black"/>
<path d="M7.48633 8.06672V7.26672M7.97108 7.26672V8.06672M8.45618 7.26672V8.06672" stroke="white" stroke-width="0.329032"/>
<path d="M8.94141 6.73322V5.93323V6.73322ZM9.42616 5.93323V6.73322V5.93323ZM9.91126 5.93323V6.73322V5.93323Z" fill="black"/>
<path d="M8.94141 6.73322V5.93323M9.42616 5.93323V6.73322M9.91126 5.93323V6.73322" stroke="white" stroke-width="0.329032"/>
<path d="M8.94141 8.06666V7.26666V8.06666ZM9.42616 7.26666V8.06666V7.26666ZM9.91126 7.26666V8.06666V7.26666Z" fill="black"/>
<path d="M8.94141 8.06666V7.26666M9.42616 7.26666V8.06666M9.91126 7.26666V8.06666" stroke="white" stroke-width="0.329032"/>
<path d="M11.1538 6.73335V5.93335V6.73335ZM11.6386 5.93335V6.73335V5.93335ZM12.1237 5.93335V6.73335V5.93335Z" fill="black"/>
<path d="M11.1538 6.73335V5.93335M11.6386 5.93335V6.73335M12.1237 5.93335V6.73335" stroke="black" stroke-width="0.329032"/>
<path d="M11.1538 8.06684V7.26685V8.06684ZM11.6386 7.26685V8.06684V7.26685ZM12.1237 7.26685V8.06684V7.26685Z" fill="black"/>
<path d="M11.1538 8.06684V7.26685M11.6386 7.26685V8.06684M12.1237 7.26685V8.06684" stroke="black" stroke-width="0.329032"/>
<path d="M12.6082 6.73328V5.93329V6.73328ZM13.0929 5.93329V6.73328V5.93329ZM13.578 5.93329V6.73328V5.93329Z" fill="black"/>
<path d="M12.6082 6.73328V5.93329M13.0929 5.93329V6.73328M13.578 5.93329V6.73328" stroke="black" stroke-width="0.329032"/>
<path d="M12.6082 8.06684V7.26685V8.06684ZM13.0929 7.26685V8.06684V7.26685ZM13.578 7.26685V8.06684V7.26685Z" fill="black"/>
<path d="M12.6082 8.06684V7.26685M13.0929 7.26685V8.06684M13.578 7.26685V8.06684" stroke="black" stroke-width="0.329032"/>
<path d="M17.8974 6.88098C17.7459 7.14334 18.0136 6.79372 18.6668 7.23294C18.7879 7.31454 18.8937 7.53007 18.8937 7.67952C18.8629 7.65896 18.8401 7.61323 18.8063 7.5835C18.7589 7.63098 18.8515 7.84871 18.8651 7.95158C18.763 7.89444 18.7728 7.86737 18.7389 7.79714C18.7456 7.88205 18.7213 8.11587 18.762 8.20594C18.6815 8.18293 18.6868 8.11816 18.6448 8.10514C18.6734 8.20706 18.6199 8.31799 18.6341 8.43258C18.587 8.38603 18.5369 8.34956 18.5151 8.33075C18.5114 8.3853 18.4246 8.52871 18.4226 8.5803C18.3827 8.5562 18.3719 8.51861 18.3652 8.49329C18.3156 8.55561 18.1393 8.78582 18.1281 8.85603C17.9922 8.73605 17.6442 8.44389 17.5989 8.28882C17.5589 8.37683 17.5009 8.40656 17.3864 8.47082C17.3411 8.22505 17.1719 7.94881 17.2624 7.73813C17.1982 7.77616 17.1454 7.81422 17.0813 7.86103C17.1421 7.50508 17.4518 7.08769 17.8975 6.88098H17.8974Z" fill="#333333" stroke="black" stroke-width="0.0406125"/>
<path d="M17.3328 8.18021C17.3956 8.05449 17.4536 8.01463 17.4942 7.93367C17.566 7.79138 17.5762 7.67819 17.6388 7.69478C17.7013 7.71137 17.7013 7.76966 17.6203 7.90954C17.5392 8.04945 17.5007 8.07934 17.3328 8.18021ZM17.758 8.47981C17.7499 8.38407 17.7777 8.3441 17.7726 8.28248C17.764 8.174 17.7197 8.09957 17.7773 8.09427C17.835 8.089 17.862 8.126 17.8621 8.2353C17.8623 8.34461 17.8454 8.37331 17.7581 8.47983L17.758 8.47981ZM18.0807 8.66741C18.0555 8.53378 18.0744 8.47451 18.0582 8.38841C18.0302 8.23693 17.9746 8.13723 18.0281 8.12337C18.0815 8.10951 18.1138 8.15851 18.134 8.31213C18.1543 8.46574 18.1436 8.50795 18.0807 8.66741ZM18.4164 7.73116C18.3375 7.67133 18.2916 7.66732 18.2407 7.62889C18.1512 7.56145 18.1059 7.48924 18.0771 7.52508C18.0483 7.56092 18.0687 7.60012 18.1626 7.66235C18.2564 7.72458 18.2881 7.72948 18.4164 7.73116ZM18.3607 8.17461C18.3192 8.08834 18.2755 8.06646 18.2486 8.01095C18.2011 7.91341 18.201 7.82902 18.1495 7.85065C18.098 7.87228 18.0939 7.91645 18.1489 8.01088C18.204 8.10528 18.2329 8.12239 18.3607 8.17461Z" fill="#B3B3B3"/>
<path d="M2.82746 7.13368C2.81899 7.05729 2.83534 7.04814 2.78833 6.99053C2.85676 7.01916 2.85935 7.09525 2.94256 7.04126C2.9731 7.02544 2.98643 7.02493 2.9493 6.94006C3.03606 6.9441 3.32016 7.04152 3.36566 7.04376C3.48513 7.04926 3.7032 6.91827 3.85457 7.07934C3.99986 7.2262 3.95135 7.37861 3.95135 7.58201C3.89297 7.55403 3.92111 7.54024 3.85916 7.46751C3.9056 7.64529 3.85669 7.96582 3.85669 8.15435C3.83284 8.1089 3.83634 8.12862 3.81303 8.08155C3.75108 8.25364 3.67684 8.28906 3.67684 8.49245C3.65448 8.4127 3.67607 8.42955 3.65119 8.38759C3.59099 8.51826 3.18709 8.62991 3.34273 8.7616C3.20226 8.67924 3.14066 8.68789 3.07696 8.61381C3.0495 8.63152 3.0277 8.66505 3.00218 8.71099C2.75519 8.59736 2.84351 8.35224 2.65001 8.18851C2.61652 8.25716 2.63178 8.24722 2.59559 8.35894C2.55642 8.20375 2.54571 8.10514 2.50165 7.99104C2.46364 8.05428 2.46703 8.03003 2.39801 8.12563C2.36945 7.93658 2.32297 7.89197 2.34135 7.76688C2.26799 7.81863 2.31601 7.79768 2.24268 7.86138C2.31216 7.37698 2.61221 7.01902 2.82753 7.13366L2.82746 7.13368Z" fill="#333333" stroke="black" stroke-width="0.0506825"/>
<path d="M2.52368 7.92445C2.58733 7.76849 2.64469 7.71952 2.68582 7.61911C2.75844 7.44264 2.77027 7.30155 2.83126 7.32308C2.89228 7.3446 2.8913 7.41728 2.80968 7.59065C2.72806 7.76408 2.68986 7.80084 2.52368 7.92441V7.92445ZM2.76462 8.3147C2.79015 8.17489 2.8304 8.12395 2.84694 8.03391C2.87632 7.87557 2.85994 7.75764 2.91664 7.76387C2.97334 7.77008 2.98615 7.82986 2.94842 7.98736C2.91069 8.14488 2.88467 8.18217 2.76462 8.3147ZM3.05281 8.58595C3.06 8.45039 3.09178 8.39749 3.09654 8.31015C3.10515 8.15657 3.07558 8.04665 3.12965 8.04602C3.18371 8.04539 3.20298 8.10062 3.18642 8.25436C3.16985 8.40813 3.14985 8.44649 3.05281 8.58595ZM3.67166 7.6994C3.55333 7.58152 3.4818 7.5595 3.40545 7.48369C3.27098 7.35055 3.20602 7.22553 3.15814 7.26984C3.11026 7.31417 3.13908 7.38058 3.28064 7.50728C3.42222 7.63398 3.47146 7.65246 3.67166 7.6994ZM3.59956 8.1551C3.52249 8.03673 3.46593 8.00607 3.41616 7.92991C3.32842 7.79607 3.29823 7.68106 3.24851 7.70955C3.19874 7.73804 3.20987 7.79813 3.30498 7.92788C3.40006 8.05759 3.4383 8.08146 3.59956 8.15515V8.1551Z" fill="#B3B3B3"/>
<path d="M8.88257 4.53247C8.74404 4.80038 9.12512 4.44336 9.7225 4.8919C9.83322 4.97522 9.99191 5.30443 9.99191 5.45703C9.86472 5.42996 9.63948 5.30443 9.63948 5.30443C9.63948 5.30443 9.9038 5.56917 9.9038 5.87437C9.81042 5.81599 9.76371 5.82474 9.73265 5.75306C9.73265 5.85185 9.81572 5.91483 9.81572 6.06743C9.7589 6.02179 9.69815 5.98126 9.63418 5.94633C9.72229 6.09893 9.47365 6.39496 9.59809 6.49378C9.38046 6.4623 9.15779 6.32326 9.06968 6.17066C9.02299 6.20211 9.01793 6.25153 9.01611 6.30419C9.02297 6.30991 8.68482 6.05322 8.7159 5.95461C8.67054 6.01824 8.66417 6.05322 8.65381 6.12495C8.52961 6.00245 8.41574 5.87995 8.3743 5.72156C8.31912 5.79326 8.31564 5.79326 8.26043 5.86499C8.21904 5.61399 8.21904 5.62295 8.30185 5.40784C8.24319 5.44669 8.19489 5.48554 8.13623 5.53338C8.19176 5.16989 8.4751 4.74366 8.88262 4.53256L8.88257 4.53247Z" fill="#333333" stroke="black" stroke-width="0.039235"/>
<path d="M8.54175 5.84146C8.56391 5.65685 8.61217 5.58729 8.62659 5.46841C8.65233 5.25932 8.62178 5.10646 8.69589 5.11036C8.76999 5.11421 8.79132 5.19133 8.75469 5.40002C8.71808 5.60864 8.68718 5.6593 8.54175 5.84146ZM8.9285 6.17956C8.91349 6.02381 8.94226 5.9575 8.9327 5.85714C8.91625 5.6806 8.86172 5.56102 8.9263 5.55003C8.99087 5.53904 9.02353 5.59826 9.03049 5.7765C9.03746 5.95477 9.0202 6.00225 8.92847 6.17956H8.9285ZM9.53225 6.45536C9.46659 6.32057 9.41017 6.28039 9.36779 6.19363C9.29292 6.04117 9.27726 5.91667 9.21953 5.93921C9.16178 5.96179 9.16496 6.02619 9.24837 6.17543C9.33177 6.32467 9.36947 6.35512 9.53225 6.45536ZM9.7412 5.24821C9.57397 5.16018 9.48808 5.15908 9.38032 5.1025C9.19055 5.00333 9.08009 4.89128 9.04089 4.95295C9.00165 5.01462 9.05401 5.07594 9.24966 5.1661C9.44531 5.25626 9.50539 5.26053 9.74122 5.24821H9.7412ZM9.80245 5.75256C9.68069 5.65127 9.60869 5.63636 9.53015 5.57119C9.39178 5.45686 9.32295 5.34453 9.27672 5.39008C9.23052 5.4356 9.26139 5.49573 9.4066 5.60346C9.55182 5.71119 9.60148 5.72456 9.80245 5.75256Z" fill="#B3B3B3"/>
</g>
<defs>
<clipPath id="clip0_306_934">
<rect width="21" height="14" fill="white"/>
</clipPath>
</defs>
</svg>
