<svg width="43" height="38" viewBox="0 0 43 38" fill="none" xmlns="http://www.w3.org/2000/svg">
<rect width="43" height="38" rx="4" fill="#FEEBE3"/>
<g clip-path="url(#clip0_306_1201)">
<path d="M8 10H35V28H8V10Z" fill="#3E5EB9"/>
<path d="M8 13.375H35V24.625H8V13.375Z" fill="#FFD900"/>
<path d="M8 14.5H35V23.5H8V14.5Z" fill="#B10C0C"/>
<path d="M30.1773 16.9424L29.0845 17.3281L30.1773 17.7138L31.2701 17.3281L30.1773 16.9424Z" fill="white" stroke="black" stroke-width="0.04788"/>
<path d="M29.4582 17.1997H13.6669C13.5897 17.1997 13.5271 17.2573 13.5271 17.3283C13.5271 17.3993 13.5897 17.4568 13.6669 17.4568H29.4582C29.5354 17.4568 29.5979 17.3993 29.5979 17.3283C29.5979 17.2573 29.5354 17.1997 29.4582 17.1997Z" fill="#FFD900" stroke="black" stroke-width="0.04788"/>
<path d="M29.2135 17.4568C29.2777 17.4568 29.3421 17.3925 29.3421 17.3283C29.3421 17.264 29.2777 17.1997 29.2135 17.1997M29.0848 17.4568C29.149 17.4568 29.2134 17.3925 29.2134 17.3283C29.2134 17.264 29.149 17.1997 29.0848 17.1997M28.9561 17.4568C29.0203 17.4568 29.0847 17.3925 29.0847 17.3283C29.0847 17.264 29.0203 17.1997 28.9561 17.1997" fill="#FFD900"/>
<path d="M29.2135 17.4568C29.2777 17.4568 29.3421 17.3925 29.3421 17.3283C29.3421 17.264 29.2777 17.1997 29.2135 17.1997M29.0848 17.4568C29.149 17.4568 29.2134 17.3925 29.2134 17.3283C29.2134 17.264 29.149 17.1997 29.0848 17.1997M28.9561 17.4568C29.0203 17.4568 29.0847 17.3925 29.0847 17.3283C29.0847 17.264 29.0203 17.1997 28.9561 17.1997" stroke="black" stroke-width="0.04788"/>
<path d="M29.1299 17.7144L28.0371 18.1001L29.1299 18.4857L30.2228 18.1001L29.1299 17.7144Z" fill="white" stroke="black" stroke-width="0.04788"/>
<path d="M28.4108 17.9717H12.6195C12.5423 17.9717 12.4797 18.0292 12.4797 18.1002C12.4797 18.1712 12.5423 18.2288 12.6195 18.2288H28.4108C28.488 18.2288 28.5506 18.1712 28.5506 18.1002C28.5506 18.0292 28.488 17.9717 28.4108 17.9717Z" fill="#FFD900" stroke="black" stroke-width="0.04788"/>
<path d="M28.1661 18.2288C28.2303 18.2288 28.2947 18.1645 28.2947 18.1002C28.2947 18.036 28.2304 17.9717 28.1661 17.9717M28.0374 18.2288C28.1016 18.2288 28.166 18.1645 28.166 18.1002C28.166 18.036 28.1017 17.9717 28.0374 17.9717M27.9087 18.2288C27.9729 18.2288 28.0373 18.1645 28.0373 18.1002C28.0373 18.036 27.973 17.9717 27.9087 17.9717" fill="#FFD900"/>
<path d="M28.1661 18.2288C28.2303 18.2288 28.2947 18.1645 28.2947 18.1002C28.2947 18.036 28.2304 17.9717 28.1661 17.9717M28.0374 18.2288C28.1016 18.2288 28.166 18.1645 28.166 18.1002C28.166 18.036 28.1017 17.9717 28.0374 17.9717M27.9087 18.2288C27.9729 18.2288 28.0373 18.1645 28.0373 18.1002C28.0373 18.036 27.973 17.9717 27.9087 17.9717" stroke="black" stroke-width="0.04788"/>
<path d="M32.3569 18.8071H10.8805C10.7755 18.8071 10.6904 18.8935 10.6904 19C10.6904 19.1065 10.7755 19.1928 10.8805 19.1928H32.3569C32.4618 19.1928 32.5469 19.1065 32.5469 19C32.5469 18.8935 32.4618 18.8071 32.3569 18.8071Z" fill="#FFD900" stroke="black" stroke-width="0.0513"/>
<path d="M27.9284 18.9999C26.6428 20.2855 24.9284 22.857 21.4997 22.857C18.4997 22.857 16.3571 20.2857 15.071 18.9999C16.3568 17.7141 18.4994 15.1428 21.4997 15.1428C24.9281 15.1428 26.6423 17.7142 27.9284 18.9999Z" fill="white" stroke="black" stroke-width="0.04788"/>
<path d="M21.0513 16.4845C21.3934 16.8692 21.1078 17.0244 21.4698 17.0496C21.8517 17.0776 21.6352 17.4561 21.9564 17.4693C22.1809 17.4791 21.934 18.3761 22.1501 18.6721C22.3703 18.9807 22.5547 18.7625 22.5586 18.9854C22.5624 19.216 21.9593 19.1927 21.9487 19.9029C21.931 20.3123 21.4398 20.3385 21.4163 20.6019C21.3872 20.8496 22.3842 20.9886 22.3708 21.2104C22.3572 21.4315 21.2943 21.3969 21.2481 21.649C21.2244 21.8755 22.7082 22.0611 22.8275 22.7161C22.6061 22.7885 21.9761 22.8567 21.5 22.857C18.5005 22.8592 16.3574 20.2854 15.0718 18.9998C16.3575 17.714 18.5002 15.1426 21.5005 15.1426C21.5005 15.1426 20.61 15.9563 21.0518 16.4843L21.0513 16.4845Z" fill="black"/>
<path d="M17.6255 18.657V17.6284V18.657ZM18.2487 17.6284V18.657V17.6284ZM18.8724 17.6284V18.657V17.6284Z" fill="black"/>
<path d="M17.6255 18.657V17.6284M18.2487 17.6284V18.657M18.8724 17.6284V18.657" stroke="white" stroke-width="0.329032"/>
<path d="M17.6255 20.3713V19.3428V20.3713ZM18.2487 19.3428V20.3713V19.3428ZM18.8724 19.3428V20.3713V19.3428Z" fill="black"/>
<path d="M17.6255 20.3713V19.3428M18.2487 19.3428V20.3713M18.8724 19.3428V20.3713" stroke="white" stroke-width="0.329032"/>
<path d="M19.4961 18.657V17.6284V18.657ZM20.1193 17.6284V18.657V17.6284ZM20.743 17.6284V18.657V17.6284Z" fill="black"/>
<path d="M19.4961 18.657V17.6284M20.1193 17.6284V18.657M20.743 17.6284V18.657" stroke="white" stroke-width="0.329032"/>
<path d="M19.4961 20.3713V19.3428V20.3713ZM20.1193 19.3428V20.3713V19.3428ZM20.743 19.3428V20.3713V19.3428Z" fill="black"/>
<path d="M19.4961 20.3713V19.3428M20.1193 19.3428V20.3713M20.743 19.3428V20.3713" stroke="white" stroke-width="0.329032"/>
<path d="M22.3406 18.657V17.6284V18.657ZM22.9638 17.6284V18.657V17.6284ZM23.5875 17.6284V18.657V17.6284Z" fill="black"/>
<path d="M22.3406 18.657V17.6284M22.9638 17.6284V18.657M23.5875 17.6284V18.657" stroke="black" stroke-width="0.329032"/>
<path d="M22.3406 20.3716V19.343V20.3716ZM22.9638 19.343V20.3716V19.343ZM23.5875 19.343V20.3716V19.343Z" fill="black"/>
<path d="M22.3406 20.3716V19.343M22.9638 19.343V20.3716M23.5875 19.343V20.3716" stroke="black" stroke-width="0.329032"/>
<path d="M24.2104 18.657V17.6284V18.657ZM24.8337 17.6284V18.657V17.6284ZM25.4574 17.6284V18.657V17.6284Z" fill="black"/>
<path d="M24.2104 18.657V17.6284M24.8337 17.6284V18.657M25.4574 17.6284V18.657" stroke="black" stroke-width="0.329032"/>
<path d="M24.2104 20.3716V19.343V20.3716ZM24.8337 19.343V20.3716V19.343ZM25.4574 19.343V20.3716V19.343Z" fill="black"/>
<path d="M24.2104 20.3716V19.343M24.8337 19.343V20.3716M25.4574 19.343V20.3716" stroke="black" stroke-width="0.329032"/>
<path d="M31.0109 18.8469C30.8161 19.1842 31.1603 18.7347 32.0002 19.2994C32.1559 19.4044 32.2919 19.6815 32.2919 19.8736C32.2523 19.8472 32.223 19.7884 32.1795 19.7502C32.1186 19.8112 32.2377 20.0911 32.2551 20.2234C32.1238 20.1499 32.1364 20.1151 32.0928 20.0248C32.1015 20.134 32.0703 20.4346 32.1225 20.5504C32.019 20.5209 32.0259 20.4376 31.9719 20.4208C32.0086 20.5519 31.9398 20.6945 31.9581 20.8418C31.8976 20.782 31.8332 20.7351 31.8051 20.7109C31.8004 20.7811 31.6888 20.9654 31.6862 21.0318C31.6349 21.0008 31.621 20.9524 31.6124 20.9199C31.5487 21 31.322 21.296 31.3075 21.3863C31.1328 21.232 30.6854 20.8564 30.6272 20.657C30.5757 20.7702 30.5012 20.8084 30.3539 20.891C30.2957 20.575 30.0781 20.2198 30.1945 19.949C30.112 19.9979 30.0441 20.0468 29.9617 20.107C30.0398 19.6493 30.4381 19.1127 31.011 18.8469H31.0109Z" fill="#333333" stroke="black" stroke-width="0.0406125"/>
<path d="M30.2849 20.5174C30.3658 20.3557 30.4403 20.3045 30.4925 20.2004C30.5848 20.0175 30.598 19.8719 30.6784 19.8933C30.7588 19.9146 30.7587 19.9895 30.6545 20.1694C30.5504 20.3493 30.5008 20.3877 30.2849 20.5174ZM30.8317 20.9026C30.8213 20.7795 30.857 20.7281 30.8505 20.6489C30.8394 20.5094 30.7823 20.4137 30.8565 20.4069C30.9307 20.4001 30.9653 20.4477 30.9655 20.5882C30.9658 20.7288 30.944 20.7657 30.8317 20.9026L30.8317 20.9026ZM31.2466 21.1438C31.2142 20.972 31.2384 20.8958 31.2177 20.7851C31.1816 20.5903 31.1102 20.4621 31.1789 20.4443C31.2476 20.4265 31.2891 20.4895 31.3151 20.687C31.3411 20.8845 31.3274 20.9388 31.2466 21.1438ZM31.6781 19.94C31.5768 19.8631 31.5176 19.858 31.4523 19.8085C31.3372 19.7218 31.279 19.629 31.2419 19.6751C31.2049 19.7212 31.2312 19.7716 31.3518 19.8516C31.4724 19.9316 31.5132 19.9379 31.6781 19.94ZM31.6066 20.5102C31.5532 20.3993 31.4969 20.3711 31.4624 20.2998C31.4013 20.1744 31.4012 20.0659 31.335 20.0937C31.2688 20.1215 31.2635 20.1783 31.3343 20.2997C31.4051 20.4211 31.4422 20.443 31.6066 20.5102Z" fill="#B3B3B3"/>
<path d="M11.6352 19.1718C11.6243 19.0736 11.6453 19.0618 11.5849 18.9877C11.6728 19.0246 11.6762 19.1224 11.7832 19.053C11.8224 19.0326 11.8396 19.032 11.7918 18.9229C11.9034 18.928 12.2686 19.0533 12.3271 19.0562C12.4807 19.0633 12.7611 18.8948 12.9557 19.1019C13.1425 19.2907 13.0802 19.4867 13.0802 19.7482C13.0051 19.7122 13.0413 19.6945 12.9616 19.601C13.0213 19.8296 12.9585 20.2417 12.9585 20.4841C12.9278 20.4256 12.9323 20.451 12.9023 20.3905C12.8227 20.6117 12.7272 20.6573 12.7272 20.9188C12.6985 20.8162 12.7262 20.8379 12.6943 20.784C12.6169 20.952 12.0976 21.0955 12.2977 21.2648C12.1171 21.1589 12.0379 21.1701 11.956 21.0748C11.9206 21.0976 11.8926 21.1407 11.8598 21.1998C11.5423 21.0537 11.6558 20.7385 11.407 20.528C11.364 20.6163 11.3836 20.6035 11.3371 20.7471C11.2867 20.5476 11.2729 20.4208 11.2163 20.2741C11.1674 20.3554 11.1718 20.3242 11.083 20.4472C11.0463 20.2041 10.9865 20.1467 11.0102 19.9859C10.9159 20.0524 10.9776 20.0255 10.8833 20.1074C10.9726 19.4846 11.3584 19.0244 11.6353 19.1718L11.6352 19.1718Z" fill="#333333" stroke="black" stroke-width="0.0506825"/>
<path d="M11.2446 20.1885C11.3265 19.988 11.4002 19.9251 11.4531 19.796C11.5465 19.5691 11.5617 19.3877 11.6401 19.4154C11.7185 19.443 11.7173 19.5365 11.6123 19.7594C11.5074 19.9824 11.4583 20.0296 11.2446 20.1885V20.1885ZM11.5544 20.6903C11.5872 20.5105 11.639 20.4451 11.6602 20.3293C11.698 20.1257 11.677 19.9741 11.7499 19.9821C11.8228 19.9901 11.8392 20.0669 11.7907 20.2694C11.7422 20.472 11.7088 20.5199 11.5544 20.6903ZM11.9249 21.039C11.9342 20.8647 11.975 20.7967 11.9812 20.6844C11.9922 20.487 11.9542 20.3457 12.0237 20.3448C12.0932 20.344 12.118 20.415 12.0967 20.6127C12.0754 20.8104 12.0497 20.8597 11.9249 21.039ZM12.7206 19.8992C12.5685 19.7476 12.4765 19.7193 12.3783 19.6219C12.2054 19.4507 12.1219 19.2899 12.0604 19.3469C11.9988 19.4039 12.0358 19.4893 12.2179 19.6522C12.3999 19.8151 12.4632 19.8388 12.7206 19.8992ZM12.6279 20.4851C12.5288 20.3329 12.4561 20.2935 12.3921 20.1956C12.2793 20.0235 12.2405 19.8756 12.1765 19.9122C12.1126 19.9489 12.1269 20.0261 12.2491 20.193C12.3714 20.3597 12.4206 20.3904 12.6279 20.4852V20.4851Z" fill="#B3B3B3"/>
<path d="M19.4205 15.8274C19.2424 16.1719 19.7324 15.7128 20.5004 16.2895C20.6428 16.3966 20.8468 16.8199 20.8468 17.0161C20.6833 16.9813 20.3937 16.8199 20.3937 16.8199C20.3937 16.8199 20.7335 17.1603 20.7335 17.5527C20.6135 17.4776 20.5534 17.4889 20.5135 17.3967C20.5135 17.5237 20.6203 17.6047 20.6203 17.8009C20.5472 17.7422 20.4691 17.6901 20.3869 17.6452C20.5002 17.8414 20.1805 18.222 20.3405 18.3491C20.0607 18.3086 19.7744 18.1298 19.6611 17.9336C19.6011 17.9741 19.5945 18.0376 19.5922 18.1053C19.601 18.1127 19.1663 17.7826 19.2062 17.6559C19.1479 17.7377 19.1397 17.7826 19.1264 17.8749C18.9667 17.7174 18.8203 17.5599 18.767 17.3562C18.6961 17.4484 18.6916 17.4484 18.6206 17.5406C18.5674 17.2179 18.5674 17.2294 18.6739 16.9529C18.5985 17.0028 18.5364 17.0528 18.4609 17.1143C18.5323 16.6469 18.8966 16.0989 19.4206 15.8275L19.4205 15.8274Z" fill="#333333" stroke="black" stroke-width="0.039235"/>
<path d="M18.9822 17.5105C19.0107 17.2732 19.0727 17.1837 19.0913 17.0309C19.1243 16.7621 19.0851 16.5655 19.1804 16.5705C19.2756 16.5755 19.3031 16.6746 19.256 16.943C19.2089 17.2112 19.1692 17.2763 18.9822 17.5105ZM19.4794 17.9452C19.4601 17.745 19.4971 17.6597 19.4848 17.5307C19.4637 17.3037 19.3936 17.15 19.4766 17.1358C19.5596 17.1217 19.6016 17.1978 19.6106 17.427C19.6195 17.6562 19.5973 17.7173 19.4794 17.9452H19.4794ZM20.2557 18.2998C20.1713 18.1265 20.0987 18.0749 20.0442 17.9633C19.948 17.7673 19.9278 17.6072 19.8536 17.6362C19.7794 17.6652 19.7834 17.748 19.8907 17.9399C19.9979 18.1318 20.0464 18.1709 20.2557 18.2998ZM20.5243 16.7478C20.3093 16.6346 20.1989 16.6332 20.0603 16.5604C19.8164 16.4329 19.6743 16.2889 19.6239 16.3682C19.5735 16.4474 19.6408 16.5263 19.8923 16.6422C20.1439 16.7581 20.2211 16.7636 20.5244 16.7478H20.5243ZM20.6031 17.3962C20.4465 17.266 20.354 17.2468 20.253 17.163C20.0751 17.016 19.9866 16.8716 19.9271 16.9302C19.8677 16.9887 19.9074 17.066 20.0941 17.2045C20.2808 17.343 20.3447 17.3602 20.6031 17.3962Z" fill="#B3B3B3"/>
</g>
<defs>
<clipPath id="clip0_306_1201">
<rect width="27" height="18" fill="white" transform="translate(8 10)"/>
</clipPath>
</defs>
</svg>
