<svg width="54" height="55" viewBox="0 0 54 55" fill="none" xmlns="http://www.w3.org/2000/svg">
<path d="M27.2796 48.9218C22.7935 48.9218 18.6068 47.5695 15.1093 45.2683L6.60532 47.9853L9.36195 39.7679C6.70954 36.1269 5.14958 31.6412 5.14958 26.8042C5.14958 14.6079 15.0704 4.68704 27.2668 4.68704C39.4631 4.68704 49.384 14.6079 49.384 26.8042C49.384 39.0002 39.4631 48.9214 27.2668 48.9214H27.2796V48.9218ZM27.2796 0.5C12.7552 0.5 0.975386 12.281 0.975386 26.8046C0.975386 31.7714 2.3537 36.4264 4.74593 40.3921L0 54.5L14.5633 49.8322C18.4558 51.9846 22.8316 53.1121 27.2796 53.1088C41.8036 53.1088 53.5839 41.3286 53.5839 26.8046C53.5835 12.281 41.8036 0.5 27.2796 0.5Z" fill="#FEFEFE"/>
<path d="M27.2795 4.68701C15.0832 4.68701 5.16235 14.6078 5.16235 26.8042C5.16235 31.6411 6.72268 36.1269 9.37508 39.7679L6.61846 47.9853L15.1221 45.2683C18.6196 47.5827 22.7934 48.9218 27.2924 48.9218C39.4888 48.9218 49.4096 39.0006 49.4096 26.8046C49.4096 14.6082 39.4888 4.68738 27.2924 4.68738H27.2795V4.68701Z" fill="url(#paint0_linear_70_1641)"/>
<path d="M21.1034 15.9216C20.6744 14.8945 20.3493 14.8556 19.6994 14.8292C19.4526 14.8133 19.2054 14.8047 18.9581 14.8035C18.1126 14.8035 17.2286 15.0504 16.6954 15.5965C16.0455 16.2596 14.4331 17.8067 14.4331 20.9794C14.4331 24.1522 16.7475 27.2207 17.0595 27.6501C17.3846 28.0787 21.5716 34.684 28.0727 37.3761C33.1566 39.4824 34.6652 39.2872 35.8222 39.0402C37.5125 38.6762 39.6321 37.4274 40.1652 35.9196C40.6984 34.411 40.6984 33.1237 40.5421 32.8507C40.3862 32.5777 39.9568 32.4221 39.3069 32.0966C38.657 31.7714 35.4971 30.2111 34.899 30.0031C34.3137 29.7821 33.7548 29.8603 33.313 30.4845C32.6888 31.3557 32.0778 32.2401 31.5835 32.7729C31.1934 33.189 30.556 33.2411 30.0231 33.0199C29.3079 32.7211 27.3058 32.0184 24.835 29.821C22.9235 28.118 21.6234 25.9988 21.2465 25.3617C20.8693 24.7118 21.2076 24.3342 21.5063 23.9834C21.8314 23.5801 22.1434 23.2942 22.4685 22.917C22.7936 22.5401 22.9756 22.3449 23.1837 21.9027C23.405 21.4737 23.2486 21.0316 23.0927 20.7064C22.9367 20.3813 21.6366 17.2085 21.1034 15.9216Z" fill="#FEFEFE"/>
<defs>
<linearGradient id="paint0_linear_70_1641" x1="-161.088" y1="-69.4145" x2="-161.088" y2="-67.7916" gradientUnits="userSpaceOnUse">
<stop stop-color="#6EBF61"/>
<stop offset="0.231" stop-color="#50A557"/>
<stop offset="0.522" stop-color="#2A904F"/>
<stop offset="0.812" stop-color="#50A557"/>
<stop offset="1" stop-color="#6EBF63"/>
</linearGradient>
</defs>
</svg>
