<svg width="56" height="57" viewBox="0 0 56 57" fill="none" xmlns="http://www.w3.org/2000/svg">
<rect y="0.5" width="56" height="56" rx="28" fill="#FCCDFA" fill-opacity="0.3"/>
<path d="M25.2 32.7L26.8333 31.0084L24.325 28.5L26.8333 25.9917L25.2 24.3L21 28.5L25.2 32.7ZM30.8 32.7L35 28.5L30.8 24.3L29.1667 25.9917L31.675 28.5L29.1667 31.0084L30.8 32.7ZM19.8333 39C19.1917 39 18.6424 38.7715 18.1854 38.3146C17.7285 37.8577 17.5 37.3084 17.5 36.6667V20.3334C17.5 19.6917 17.7285 19.1424 18.1854 18.6854C18.6424 18.2285 19.1917 18 19.8333 18H24.7333C24.9861 17.3 25.409 16.7361 26.0021 16.3084C26.5951 15.8806 27.2611 15.6667 28 15.6667C28.7389 15.6667 29.4049 15.8806 29.9979 16.3084C30.591 16.7361 31.0139 17.3 31.2667 18H36.1667C36.8083 18 37.3576 18.2285 37.8146 18.6854C38.2715 19.1424 38.5 19.6917 38.5 20.3334V36.6667C38.5 37.3084 38.2715 37.8577 37.8146 38.3146C37.3576 38.7715 36.8083 39 36.1667 39H19.8333ZM19.8333 36.6667H36.1667V20.3334H19.8333V36.6667ZM28 19.4584C28.2528 19.4584 28.4618 19.3757 28.6271 19.2104C28.7924 19.0452 28.875 18.8361 28.875 18.5834C28.875 18.3306 28.7924 18.1215 28.6271 17.9563C28.4618 17.791 28.2528 17.7084 28 17.7084C27.7472 17.7084 27.5382 17.791 27.3729 17.9563C27.2076 18.1215 27.125 18.3306 27.125 18.5834C27.125 18.8361 27.2076 19.0452 27.3729 19.2104C27.5382 19.3757 27.7472 19.4584 28 19.4584Z" fill="#F005E7"/>
</svg>
