<svg width="56" height="57" viewBox="0 0 56 57" fill="none" xmlns="http://www.w3.org/2000/svg">
<rect y="0.5" width="56" height="56" rx="28" fill="#FCCDFA" fill-opacity="0.3"/>
<path d="M18.6666 40.1666C18.0249 40.1666 17.4756 39.9382 17.0187 39.4812C16.5617 39.0243 16.3333 38.475 16.3333 37.8333V25C16.3333 24.3583 16.5617 23.809 17.0187 23.3521C17.4756 22.8951 18.0249 22.6666 18.6666 22.6666H24.4999V19.1666C24.4999 18.525 24.7284 17.9757 25.1853 17.5187C25.6423 17.0618 26.1916 16.8333 26.8333 16.8333H29.1666C29.8083 16.8333 30.3576 17.0618 30.8145 17.5187C31.2714 17.9757 31.4999 18.525 31.4999 19.1666V22.6666H37.3333C37.9749 22.6666 38.5242 22.8951 38.9812 23.3521C39.4381 23.809 39.6666 24.3583 39.6666 25V37.8333C39.6666 38.475 39.4381 39.0243 38.9812 39.4812C38.5242 39.9382 37.9749 40.1666 37.3333 40.1666H18.6666ZM18.6666 37.8333H37.3333V25H31.4999C31.4999 25.6416 31.2714 26.191 30.8145 26.6479C30.3576 27.1048 29.8083 27.3333 29.1666 27.3333H26.8333C26.1916 27.3333 25.6423 27.1048 25.1853 26.6479C24.7284 26.191 24.4999 25.6416 24.4999 25H18.6666V37.8333ZM20.9999 35.5H27.9999V34.975C27.9999 34.6444 27.9076 34.3382 27.7228 34.0562C27.5381 33.7743 27.2805 33.5555 26.9499 33.4C26.561 33.225 26.1673 33.0937 25.7687 33.0062C25.3701 32.9187 24.9471 32.875 24.4999 32.875C24.0527 32.875 23.6298 32.9187 23.2312 33.0062C22.8326 33.0937 22.4388 33.225 22.0499 33.4C21.7194 33.5555 21.4617 33.7743 21.277 34.0562C21.0923 34.3382 20.9999 34.6444 20.9999 34.975V35.5ZM30.3333 33.75H34.9999V32H30.3333V33.75ZM24.4999 32C24.986 32 25.3992 31.8298 25.7395 31.4896C26.0798 31.1493 26.2499 30.7361 26.2499 30.25C26.2499 29.7639 26.0798 29.3507 25.7395 29.0104C25.3992 28.6701 24.986 28.5 24.4999 28.5C24.0138 28.5 23.6006 28.6701 23.2603 29.0104C22.9201 29.3507 22.7499 29.7639 22.7499 30.25C22.7499 30.7361 22.9201 31.1493 23.2603 31.4896C23.6006 31.8298 24.0138 32 24.4999 32ZM30.3333 30.25H34.9999V28.5H30.3333V30.25ZM26.8333 25H29.1666V19.1666H26.8333V25Z" fill="#F005E7"/>
</svg>
