<svg width="56" height="57" viewBox="0 0 56 57" fill="none" xmlns="http://www.w3.org/2000/svg">
<rect y="0.5" width="56" height="56" rx="28" fill="#FCCDFA" fill-opacity="0.3"/>
<path d="M26.2501 32H29.7501L29.0792 28.2375C29.4681 28.043 29.7744 27.7611 29.998 27.3916C30.2216 27.0222 30.3334 26.6139 30.3334 26.1666C30.3334 25.525 30.1049 24.9757 29.648 24.5187C29.1911 24.0618 28.6417 23.8333 28.0001 23.8333C27.3584 23.8333 26.8091 24.0618 26.3522 24.5187C25.8952 24.9757 25.6667 25.525 25.6667 26.1666C25.6667 26.6139 25.7786 27.0222 26.0022 27.3916C26.2258 27.7611 26.532 28.043 26.9209 28.2375L26.2501 32ZM28.0001 40.1666C25.2973 39.4861 23.0661 37.9354 21.3063 35.5146C19.5466 33.0937 18.6667 30.4055 18.6667 27.45V20.3333L28.0001 16.8333L37.3334 20.3333V27.45C37.3334 30.4055 36.4536 33.0937 34.6938 35.5146C32.9341 37.9354 30.7029 39.4861 28.0001 40.1666ZM28.0001 37.7166C30.0223 37.075 31.6945 35.7916 33.0167 33.8666C34.339 31.9416 35.0001 29.8028 35.0001 27.45V21.9375L28.0001 19.3125L21.0001 21.9375V27.45C21.0001 29.8028 21.6612 31.9416 22.9834 33.8666C24.3056 35.7916 25.9779 37.075 28.0001 37.7166Z" fill="#F005E7"/>
</svg>
